<svg width="32" height="32" viewBox="0 0 32 32" fill="none" xmlns="http://www.w3.org/2000/svg">
<circle cx="16" cy="16" r="16" fill="#D9D9D9"/>
<path d="M17.4586 17.92C17.6586 16.91 17.7786 16.05 18.0286 15.22C18.2086 14.62 17.9886 14.56 17.4986 14.58C16.9186 14.61 16.3386 14.6 15.7686 14.58C14.2386 14.54 13.0586 13.51 13.0286 12C12.9686 9.64 12.9786 10.87 13.0586 8.51C13.1086 7.01 14.2685 6.04 15.8785 6.02C17.8985 6 19.9285 6.02 21.9485 6.02C24.4485 6.02 22.3485 6.01 24.8485 6C27.0385 6 28.1085 7.03 28.1085 9.21C28.1085 11.18 28.1085 9.55 28.0985 11.52C28.0885 13.42 27.0585 14.51 25.1385 14.57C23.1385 14.63 25.7386 14.6 23.7386 14.59C23.2486 14.59 22.8285 14.7 22.4085 14.95C20.8185 15.92 19.2185 16.87 17.4785 17.92H17.4586ZM22.6985 8.44C21.8885 8.44 21.1685 9.13 21.1685 9.93C21.1685 10.77 21.8785 11.49 22.7185 11.49C23.5685 11.49 24.2285 10.8 24.2285 9.9C24.2285 9.08 23.5585 8.44 22.6985 8.44ZM18.0985 9.94C18.1085 9.11 17.4586 8.44 16.6186 8.44C15.7886 8.44 15.0985 9.09 15.0685 9.9C15.0385 10.73 15.7485 11.48 16.5785 11.49C17.4485 11.49 18.0885 10.85 18.0985 9.94Z" fill="black"/>
<path d="M16.3285 16.05C16.1185 17.32 15.8785 18.54 15.1685 19.62C14.7485 20.25 15.0885 21.03 15.8085 21.25C18.3185 22.01 19.4185 23.3 19.6585 25.75C19.7585 26.7 19.6285 26.91 18.6585 27.08C15.7185 27.62 12.7585 27.75 9.78852 27.45C8.84852 27.35 7.91852 27.2 6.97852 27.07C6.19852 26.96 5.94852 26.51 6.00852 25.74C6.17852 23.54 7.24852 22.07 9.38852 21.39C10.6985 20.97 10.8085 20.55 10.0785 19.38C9.71853 18.81 9.44852 18.2 9.00852 17.66C8.64852 17.21 8.43853 16.58 8.92853 15.99C9.11853 15.76 8.98852 15.48 8.97852 15.23C8.93852 14.2 8.91854 13.18 9.58854 12.29C9.80854 11.99 10.0685 11.74 10.3885 11.54C11.2985 10.99 11.4685 11.06 11.5585 12.07C11.7785 14.49 13.2985 15.93 15.7485 16.01C15.9285 16.01 16.1085 16.03 16.3285 16.04V16.05Z" fill="black"/>
</svg>
