<svg width="32" height="32" viewBox="0 0 32 32" fill="none" xmlns="http://www.w3.org/2000/svg">
<circle cx="16" cy="16" r="16" fill="#D9D9D9"/>
<path d="M25.71 23.9C25.41 22.79 24.68 22.07 23.55 21.75C22.91 21.57 22.26 21.54 21.61 21.49C19.91 21.37 19.08 20.5 18.97 18.88C18.87 17.52 19.86 16.55 20.14 15.32C20.14 15.29 20.21 15.26 20.25 15.24C21.3 14.68 21.38 13.69 21.41 12.68C21.41 12.46 21.41 12.19 21.2 12.09C20.72 11.85 20.86 11.48 20.91 11.09C21.1 9.47001 20.85 7.94001 19.5 6.87001C18.11 5.77001 16.52 5.64001 14.9 6.33001C13.31 7.00001 12.8 8.38001 12.64 9.96001C12.55 10.79 13.04 11.73 12.19 12.44C12.12 12.5 12.11 12.67 12.12 12.79C12.2 13.76 12.27 14.75 13.3 15.27C13.45 15.34 13.5 15.47 13.54 15.61C13.72 16.27 14.08 16.86 14.35 17.48C15.15 19.28 14.25 21.03 12.33 21.41C11.97 21.48 11.61 21.51 11.25 21.54C9.09 21.7 8.08 22.53 7.56 24.61H7.55L7 27.27C9.49 29.58 12.8 30.99 16.43 30.99C20.3 30.99 23.8 29.39 26.34 26.8C26.34 26.8 26.34 26.78 26.34 26.76C26.12 25.81 25.99 24.84 25.74 23.91L25.71 23.9Z" fill="black"/>
<path d="M16.7 4.73C17.02 4.73 17.13 4.6 17.1 4.3C17.09 4.18 17.1 4.06 17.1 3.94C17.1 3.8 17.1 3.65 17.1 3.51C17.12 3.21 17.07 3.01 16.69 3C16.33 3 16.23 3.15 16.25 3.47C16.27 3.76 16.27 4.05 16.26 4.33C16.25 4.66 16.41 4.73 16.7 4.73Z" fill="black"/>
<path d="M9.92 7.86001C10.32 7.90001 10.52 7.63001 10.59 7.27001C10.55 6.87001 10.35 6.65001 9.95 6.63001C9.53 6.61001 9.3 6.83001 9.28 7.22001C9.26 7.63001 9.56 7.83001 9.92 7.87001V7.86001Z" fill="black"/>
<path d="M9.91001 18.68C10.26 18.64 10.52 18.39 10.56 17.98C10.44 17.68 10.28 17.43 9.89001 17.46C9.49001 17.5 9.26001 17.73 9.28001 18.13C9.30001 18.5 9.56001 18.73 9.91001 18.68Z" fill="black"/>
<path d="M23.28 18.02C23.28 18.42 23.56 18.63 23.94 18.62C24.29 18.61 24.56 18.39 24.53 18.03C24.5 17.67 24.27 17.42 23.86 17.43C23.48 17.44 23.28 17.67 23.28 18.02Z" fill="black"/>
<path d="M27.06 12.13C26.86 11.86 26.52 12.05 26.25 12C25.95 12.07 25.58 11.87 25.36 12.14C25.25 12.27 25.23 12.66 25.43 12.72C25.93 12.88 26.48 12.87 26.98 12.72C27.18 12.66 27.18 12.29 27.07 12.14L27.06 12.13Z" fill="black"/>
<path d="M23.62 7.89999C24.01 7.87999 24.31 7.66999 24.3 7.21999C24.29 6.83999 24.06 6.66999 23.72 6.64999C23.25 6.68999 23.06 6.97 23.06 7.37C23.06 7.7 23.31 7.91999 23.63 7.89999H23.62Z" fill="black"/>
<path d="M7.89001 13.38C8.16001 13.28 8.67001 13.62 8.65001 12.95C8.64001 12.36 8.19001 12.57 7.91001 12.56C7.62001 12.55 7.20001 12.38 7.21001 12.98C7.21001 13.55 7.61001 13.32 7.89001 13.38Z" fill="black"/>
</svg>
