<svg width="32" height="32" viewBox="0 0 32 32" fill="none" xmlns="http://www.w3.org/2000/svg">
<circle cx="16" cy="16" r="16" fill="#D9D9D9"/>
<path d="M16.4039 3.00444C17.6039 3.00444 18.7939 2.99444 19.9939 3.00444C22.0839 3.02444 23.3339 4.24444 23.3739 6.32444C23.4039 7.76444 23.3939 9.20444 23.3739 10.6444C23.3739 11.0944 23.4739 11.3744 23.8639 11.6744C25.0839 12.6144 26.1739 13.7044 27.2239 14.8244C27.5539 15.1744 27.5939 15.4144 27.2439 15.7944C26.2239 16.8844 25.1839 17.9444 23.9839 18.8444C23.5439 19.1744 23.3639 19.5444 23.3739 20.0744C23.3939 21.7144 23.4039 23.3444 23.3839 24.9844C23.3639 27.0244 22.1339 28.3744 20.0839 28.4244C17.5739 28.4844 15.0539 28.4744 12.5339 28.4044C10.5539 28.3444 9.3039 26.9744 9.2739 24.9744C9.2539 23.3344 9.2539 21.7044 9.2739 20.0644C9.2739 19.6444 9.1639 19.3944 8.7939 19.1144C7.5039 18.1044 6.3039 16.9944 5.2139 15.7644C4.9139 15.4244 4.9439 15.2144 5.2139 14.9044C6.2539 13.6944 7.4039 12.6044 8.6739 11.6544C9.1239 11.3144 9.26391 10.9644 9.25391 10.4344C9.22391 9.11444 9.25391 7.79445 9.25391 6.47445C9.27391 4.30445 10.4939 3.06445 12.6539 3.01445C13.9039 2.98445 15.1439 3.01445 16.3939 3.01445L16.4039 3.00444ZM16.2739 25.5744C17.7839 25.5744 19.3039 25.5844 20.8139 25.5744C21.5939 25.5744 21.9839 25.2144 22.0039 24.4844C22.0339 23.2444 22.0039 21.9944 22.0039 20.7444C22.0039 20.3944 21.8939 20.3144 21.5639 20.4944C20.8139 20.9144 20.0139 21.2044 19.1939 21.4444C16.4339 22.2444 13.7739 21.8844 11.2339 20.6144C10.6839 20.3444 10.5839 20.4744 10.6039 21.0244C10.6339 22.0944 10.6139 23.1744 10.6339 24.2444C10.6539 25.2644 10.9539 25.5544 11.9539 25.5644C13.3939 25.5644 14.8339 25.5644 16.2739 25.5644V25.5744ZM22.0239 10.4244C22.0239 9.13445 22.0239 7.96444 22.0239 6.80444C22.0239 5.76444 21.5839 5.29444 20.5239 5.23444C19.8139 5.19444 19.1039 5.21444 18.4039 5.21444C16.3339 5.21444 14.2539 5.19444 12.1839 5.25444C11.0439 5.28444 10.6439 5.74444 10.6339 6.84444C10.6239 7.77444 10.6639 8.70444 10.6239 9.62444C10.5939 10.3044 10.8039 10.2644 11.3239 10.0244C13.3539 9.07445 15.4739 8.65445 17.7239 8.95445C19.2239 9.15445 20.6039 9.64445 22.0439 10.4244H22.0239ZM16.2639 10.8244C13.3439 10.8644 11.4839 12.4844 10.1239 14.8844C9.9839 15.1344 9.9939 15.3944 10.1239 15.6544C11.1439 17.6744 12.6339 19.2244 14.8739 19.8044C18.3039 20.6944 21.1139 18.3244 22.2939 15.7144C22.4339 15.4144 22.4339 15.0944 22.2639 14.7944C20.9039 12.3344 19.1139 10.8244 16.2639 10.8244ZM17.0539 27.0344C16.9339 26.6744 16.8439 26.2944 16.3739 26.2944C15.9139 26.2944 15.6139 26.5744 15.6139 27.0044C15.6139 27.4144 15.8739 27.7644 16.3439 27.7544C16.7639 27.7544 16.9439 27.4044 17.0539 27.0344ZM16.9239 4.16444C16.9239 3.78444 16.7539 3.49444 16.3839 3.50444C16.0339 3.50444 15.7339 3.71445 15.7239 4.13445C15.7239 4.58445 16.0339 4.80445 16.4139 4.81445C16.8039 4.81445 16.8839 4.47444 16.9239 4.16444Z" fill="black"/>
<path d="M20.6239 15.3444C20.5939 17.4744 18.6439 19.2244 16.2739 19.2244C13.8439 19.2244 11.7839 17.4244 11.7339 15.2444C11.7139 14.5644 11.8939 13.9444 12.3439 13.4144C12.4239 13.3244 12.5139 13.2244 12.6539 13.2844C12.8039 13.3544 12.7339 13.4844 12.7139 13.6044C12.5939 14.3044 12.4839 14.9944 12.6339 15.7144C12.8139 16.5844 13.3139 17.2144 13.9839 17.7444C14.1639 17.8844 14.4139 18.0944 14.6339 17.8544C14.8739 17.5844 14.5039 17.4844 14.3839 17.3544C13.6039 16.5344 13.1339 15.6044 13.3339 14.4444C13.6439 12.6644 15.2739 11.5444 17.2639 11.7244C19.2939 11.9144 20.6739 13.3944 20.6439 15.3544L20.6239 15.3444ZM16.7839 13.0744C17.9839 13.0744 18.8139 13.7844 19.0339 14.9644C19.2039 15.8544 18.6239 16.7544 17.6039 17.1244C17.2639 17.2444 17.1139 17.4344 17.2139 17.7744C17.3239 18.1144 17.6039 18.1244 17.8739 18.0344C18.6139 17.7944 19.0939 17.2444 19.4439 16.5844C20.1139 15.3544 19.7739 13.8944 18.6239 12.9944C17.4439 12.0644 16.1039 12.1044 14.9239 13.1044C13.8439 14.0144 13.6239 15.3344 14.3839 16.5944C14.5639 16.8944 14.7439 17.5144 15.1439 17.2844C15.5739 17.0444 15.0239 16.6744 14.8939 16.3844C14.1439 14.7344 15.0839 13.0644 16.7839 13.0744Z" fill="black"/>
</svg>
