<svg width="125" height="101" viewBox="0 0 125 101" fill="none" xmlns="http://www.w3.org/2000/svg">
<mask id="mask0_154_93" style="mask-type:luminance" maskUnits="userSpaceOnUse" x="2" y="2" width="121" height="96">
<path d="M109.33 2.5H15.67C8.39641 2.5 2.5 8.39641 2.5 15.67V84.57C2.5 91.8436 8.39641 97.74 15.67 97.74H109.33C116.604 97.74 122.5 91.8436 122.5 84.57V15.67C122.5 8.39641 116.604 2.5 109.33 2.5Z" fill="white"/>
</mask>
<g mask="url(#mask0_154_93)">
<path d="M59.59 97.74L122.5 57.55V97.74H59.59Z" fill="#C1A029"/>
<path d="M57.25 97.74L122.5 56.05V57.55L59.59 97.74H57.25Z" fill="#C1A029"/>
<path d="M54.91 97.74L122.5 54.56V56.05L57.25 97.74H54.91Z" fill="#C2A12A"/>
<path d="M52.57 97.74L122.5 53.06V54.56L54.91 97.74H52.57Z" fill="#C2A22B"/>
<path d="M50.23 97.74L122.5 51.57V53.06L52.57 97.74H50.23Z" fill="#C3A22C"/>
<path d="M47.89 97.74L122.5 50.08V51.57L50.23 97.74H47.89Z" fill="#C3A32D"/>
<path d="M45.55 97.74L122.5 48.58V50.08L47.89 97.74H45.55Z" fill="#C4A42E"/>
<path d="M43.21 97.74L122.5 47.09V48.58L45.55 97.74H43.21Z" fill="#C4A52F"/>
<path d="M40.88 97.74L122.5 45.59V47.09L43.21 97.74H40.88Z" fill="#C5A630"/>
<path d="M38.54 97.74L122.5 44.1V45.59L40.88 97.74H38.54Z" fill="#C6A631"/>
<path d="M36.2 97.74L122.5 42.6V44.1L38.54 97.74H36.2Z" fill="#C6A732"/>
<path d="M33.86 97.74L122.5 41.11V42.6L36.2 97.74H33.86Z" fill="#C7A833"/>
<path d="M31.52 97.74L122.5 39.62V41.11L33.86 97.74H31.52Z" fill="#C7A934"/>
<path d="M29.18 97.74L122.5 38.12V39.62L31.52 97.74H29.18Z" fill="#C8A935"/>
<path d="M26.84 97.74L122.5 36.63V38.12L29.18 97.74H26.84Z" fill="#C8AA36"/>
<path d="M24.5 97.74L122.5 35.13V36.63L26.84 97.74H24.5Z" fill="#C9AB37"/>
<path d="M22.16 97.74L122.5 33.64V35.13L24.5 97.74H22.16Z" fill="#CAAC38"/>
<path d="M19.83 97.74L122.5 32.15V33.64L22.16 97.74H19.83Z" fill="#CAAD39"/>
<path d="M17.49 97.74L122.5 30.65V32.15L19.83 97.74H17.49Z" fill="#CBAD3A"/>
<path d="M15.15 97.74L122.5 29.16V30.65L17.49 97.74H15.15Z" fill="#CBAE3B"/>
<path d="M12.81 97.74L122.5 27.66V29.16L15.15 97.74H12.81Z" fill="#CCAF3C"/>
<path d="M10.47 97.74L122.5 26.17V27.66L12.81 97.74H10.47Z" fill="#CDB03D"/>
<path d="M8.13 97.74L122.5 24.67V26.17L10.47 97.74H8.13Z" fill="#CDB13E"/>
<path d="M5.9 97.74L5.87 97.69L122.5 23.18V24.67L8.13 97.74H5.9Z" fill="#CEB13F"/>
<path d="M5.87 97.69L5.19 96.63L122.5 21.69V23.18L5.87 97.69Z" fill="#CEB240"/>
<path d="M5.19001 96.63L4.51001 95.57L122.5 20.19V21.69L5.19001 96.63Z" fill="#CFB341"/>
<path d="M4.50999 95.57L3.82999 94.51L122.5 18.7V20.19L4.50999 95.57Z" fill="#CFB442"/>
<path d="M3.82999 94.51L3.14999 93.45L122.5 17.2V18.7L3.82999 94.51Z" fill="#D0B443"/>
<path d="M3.15 93.45L2.5 92.42V92.37L122.5 15.71V17.2L3.15 93.45Z" fill="#D1B544"/>
<path d="M2.5 90.87L122.5 14.22V15.71L2.5 92.37V90.87Z" fill="#D1B645"/>
<path d="M2.5 89.38L122.5 12.72V14.22L2.5 90.87V89.38Z" fill="#D2B746"/>
<path d="M2.5 87.89L122.5 11.23V12.72L2.5 89.38V87.89Z" fill="#D2B847"/>
<path d="M2.5 86.39L122.5 9.73V11.23L2.5 87.89V86.39Z" fill="#D3B848"/>
<path d="M2.5 84.9L122.5 8.24001V9.73001L2.5 86.39V84.9Z" fill="#D3B949"/>
<path d="M2.5 83.4L122.02 7.05L122.5 7.81V8.24L2.5 84.9V83.4Z" fill="#D4BA4A"/>
<path d="M2.5 81.91L121.34 5.99001L122.02 7.05001L2.5 83.4V81.91Z" fill="#D5BB4B"/>
<path d="M2.5 80.42L120.66 4.92999L121.34 5.98999L2.5 81.91V80.42Z" fill="#D5BC4C"/>
<path d="M2.5 78.92L119.98 3.87L120.66 4.93L2.5 80.42V78.92Z" fill="#D6BC4D"/>
<path d="M2.5 77.43L119.3 2.81L119.98 3.87L2.5 78.92V77.43Z" fill="#D6BD4E"/>
<path d="M2.5 75.93L117.45 2.5H119.11L119.3 2.81L2.5 77.43V75.93Z" fill="#D7BE4F"/>
<path d="M2.5 74.44L115.11 2.5H117.45L2.5 75.93V74.44Z" fill="#D7BF50"/>
<path d="M2.5 72.94L112.77 2.5H115.11L2.5 74.44V72.94Z" fill="#D8C051"/>
<path d="M2.5 71.45L110.44 2.5H112.77L2.5 72.94V71.45Z" fill="#D9C052"/>
<path d="M2.5 69.96L108.1 2.5H110.44L2.5 71.45V69.96Z" fill="#D9C153"/>
<path d="M2.5 68.46L105.76 2.5H108.1L2.5 69.96V68.46Z" fill="#DAC255"/>
<path d="M2.5 66.97L103.42 2.5H105.76L2.5 68.46V66.97Z" fill="#DAC356"/>
<path d="M2.5 65.47L101.08 2.5H103.42L2.5 66.97V65.47Z" fill="#DBC357"/>
<path d="M2.5 63.98L98.74 2.5H101.08L2.5 65.47V63.98Z" fill="#DCC458"/>
<path d="M2.5 62.49L96.4 2.5H98.74L2.5 63.98V62.49Z" fill="#DCC559"/>
<path d="M2.5 60.99L94.06 2.5H96.4L2.5 62.49V60.99Z" fill="#DDC65A"/>
<path d="M2.5 59.5L91.72 2.5H94.06L2.5 60.99V59.5Z" fill="#DDC75B"/>
<path d="M2.5 58L89.39 2.5H91.72L2.5 59.5V58Z" fill="#DEC75C"/>
<path d="M2.5 56.51L87.05 2.5H89.39L2.5 58V56.51Z" fill="#DEC85D"/>
<path d="M2.5 55.01L84.71 2.5H87.05L2.5 56.51V55.01Z" fill="#DFC95E"/>
<path d="M2.5 53.52L82.37 2.5H84.71L2.5 55.01V53.52Z" fill="#E0CA5F"/>
<path d="M2.5 52.03L80.03 2.5H82.37L2.5 53.52V52.03Z" fill="#E0CB60"/>
<path d="M2.5 50.53L77.69 2.5H80.03L2.5 52.03V50.53Z" fill="#E1CB61"/>
<path d="M2.5 49.04L75.35 2.5H77.69L2.5 50.53V49.04Z" fill="#E1CC62"/>
<path d="M2.5 47.54L73.01 2.5H75.35L2.5 49.04V47.54Z" fill="#E2CD63"/>
<path d="M2.5 46.05L70.67 2.5H73.01L2.5 47.54V46.05Z" fill="#E2CE64"/>
<path d="M2.5 44.56L68.34 2.5H70.67L2.5 46.05V44.56Z" fill="#E3CF65"/>
<path d="M2.5 43.06L66 2.5H68.34L2.5 44.56V43.06Z" fill="#E4CF66"/>
<path d="M2.5 41.57L63.66 2.5H66L2.5 43.06V41.57Z" fill="#E4D067"/>
<path d="M2.5 40.07L61.32 2.5H63.66L2.5 41.57V40.07Z" fill="#E5D168"/>
<path d="M2.5 38.58L58.98 2.5H61.32L2.5 40.07V38.58Z" fill="#E5D269"/>
<path d="M2.5 37.09L56.64 2.5H58.98L2.5 38.58V37.09Z" fill="#E6D26A"/>
<path d="M2.5 35.59L54.3 2.5H56.64L2.5 37.09V35.59Z" fill="#E6D36B"/>
<path d="M2.5 34.1L51.96 2.5H54.3L2.5 35.59V34.1Z" fill="#E7D46C"/>
<path d="M2.5 32.6L49.62 2.5H51.96L2.5 34.1V32.6Z" fill="#E8D56D"/>
<path d="M2.5 31.11L47.29 2.5H49.62L2.5 32.6V31.11Z" fill="#E8D66E"/>
<path d="M2.5 29.61L44.95 2.5H47.29L2.5 31.11V29.61Z" fill="#E9D66F"/>
<path d="M2.5 28.12L42.61 2.5H44.95L2.5 29.61V28.12Z" fill="#E9D770"/>
<path d="M2.5 26.63L40.27 2.5H42.61L2.5 28.12V26.63Z" fill="#EAD871"/>
<path d="M2.5 25.13L37.93 2.5H40.27L2.5 26.63V25.13Z" fill="#EBD972"/>
<path d="M2.5 23.64L35.59 2.5H37.93L2.5 25.13V23.64Z" fill="#EBDA73"/>
<path d="M2.5 22.14L33.25 2.5H35.59L2.5 23.64V22.14Z" fill="#ECDA74"/>
<path d="M2.5 20.65L30.91 2.5H33.25L2.5 22.14V20.65Z" fill="#ECDB75"/>
<path d="M2.5 19.16L28.57 2.5H30.91L2.5 20.65V19.16Z" fill="#EDDC76"/>
<path d="M2.5 17.66L26.24 2.5H28.57L2.5 19.16V17.66Z" fill="#EDDD77"/>
<path d="M2.5 16.17L23.9 2.5H26.24L2.5 17.66V16.17Z" fill="#EEDD78"/>
<path d="M2.5 14.67L21.56 2.5H23.9L2.5 16.17V14.67Z" fill="#EFDE79"/>
<path d="M2.5 13.18L19.22 2.5H21.56L2.5 14.67V13.18Z" fill="#EFDF7A"/>
<path d="M2.5 11.68L16.88 2.5H19.22L2.5 13.18V11.68Z" fill="#F0E07B"/>
<path d="M2.5 10.19L14.54 2.5H16.88L2.5 11.68V10.19Z" fill="#F0E17C"/>
<path d="M2.5 8.7L12.2 2.5H14.54L2.5 10.19V8.7Z" fill="#F1E17D"/>
<path d="M2.5 7.2L9.86 2.5H12.2L2.5 8.7V7.2Z" fill="#F1E27E"/>
<path d="M2.5 5.71L7.52 2.5H9.86L2.5 7.2V5.71Z" fill="#F2E37F"/>
<path d="M7.52 2.5L2.5 5.71V2.5H7.52Z" fill="#F2E37F"/>
</g>
<path d="M90.42 2.5H89.82V97.74H90.42V2.5Z" fill="#6D5800" stroke="black" stroke-width="5" stroke-miterlimit="10"/>
<path d="M122.5 69.22H90.12V69.73H122.5V69.22Z" fill="#6D5800" stroke="black" stroke-width="5" stroke-miterlimit="10"/>
<path d="M122.5 49.86H90.12V50.37H122.5V49.86Z" fill="#6D5800" stroke="black" stroke-width="5" stroke-miterlimit="10"/>
<path d="M122.5 30.49H90.12V31H122.5V30.49Z" fill="#6D5800" stroke="black" stroke-width="5" stroke-miterlimit="10"/>
<path d="M20.92 69.22H2.5V69.73H20.92V69.22Z" fill="#6D5800" stroke="black" stroke-width="5" stroke-miterlimit="10"/>
<path d="M20.92 49.86H2.5V50.37H20.92V49.86Z" fill="#6D5800" stroke="black" stroke-width="5" stroke-miterlimit="10"/>
<path d="M20.92 30.49H2.5V31H20.92V30.49Z" fill="#6D5800" stroke="black" stroke-width="5" stroke-miterlimit="10"/>
<path d="M21.17 2.5H20.66V69.48H21.17V2.5Z" fill="#6D5800" stroke="black" stroke-width="5" stroke-miterlimit="10"/>
</svg>
