<svg width="136" height="21" viewBox="0 0 136 21" fill="none" xmlns="http://www.w3.org/2000/svg">
<g clip-path="url(#clip0_154_197)">
<path d="M102 16.79V8.93001L100.06 16.79H93.38L91.37 9.21L91.43 16.79H85.34V0.130005H94.85L96.75 9.36L98.51 0.130005H107.92V16.79H102Z" fill="white"/>
<path d="M116.82 0H109.73V16.8H116.82V0Z" fill="white"/>
<path d="M135.58 12.27C135.58 13.25 135.39 14.04 135.01 14.64C134.63 15.24 134.14 15.71 133.53 16.05C132.93 16.38 132.26 16.61 131.53 16.72C130.8 16.84 130.09 16.89 129.39 16.89H118.59V0.140015H128.62C130.84 0.140015 132.45 0.510015 133.45 1.26001C134.45 2.01001 134.95 3.09001 134.95 4.49001C134.95 5.14001 134.86 5.68002 134.69 6.11001C134.51 6.54001 134.27 6.90001 133.96 7.19001C133.65 7.48001 133.29 7.71001 132.87 7.89001C132.46 8.07001 132.01 8.23001 131.52 8.37001C132.01 8.43001 132.49 8.54001 132.97 8.70001C133.45 8.86001 133.89 9.08001 134.27 9.39001C134.66 9.69001 134.97 10.08 135.22 10.54C135.46 11 135.59 11.59 135.59 12.28L135.58 12.27ZM128.46 5.32001C128.46 5.09001 128.43 4.88001 128.38 4.69001C128.33 4.50001 128.24 4.34001 128.11 4.20001C127.98 4.07001 127.8 3.96001 127.58 3.89001C127.35 3.82001 127.06 3.79001 126.7 3.79001H125.37V6.82001H126.7C127.36 6.82001 127.82 6.70001 128.08 6.45001C128.34 6.20001 128.46 5.82001 128.46 5.31001V5.32001ZM128.82 11.67C128.82 11.44 128.79 11.23 128.74 11.04C128.68 10.85 128.58 10.69 128.44 10.55C128.29 10.42 128.1 10.31 127.84 10.24C127.59 10.17 127.26 10.14 126.86 10.14H125.38V13.17H126.86C127.6 13.17 128.11 13.05 128.4 12.8C128.69 12.55 128.83 12.17 128.83 11.66L128.82 11.67Z" fill="white"/>
<path d="M4.24 13.8V10.64H11.64V13.8H4.24ZM7.9 7.96001L6.18 11.82L6.52 12.82L5 15.6H0L7.9 0.600006L15.8 15.6H10.8L9.32 12.96L9.62 11.82L7.9 7.96001ZM16.51 16.3H20.25C20.3 16.63 20.4 16.89 20.55 17.06C20.7 17.23 20.88 17.35 21.09 17.4C21.32 17.47 21.56 17.5 21.83 17.5C22.23 17.5 22.57 17.41 22.85 17.24C23.13 17.08 23.34 16.84 23.49 16.52C23.64 16.21 23.71 15.84 23.71 15.4V6.40001H27.41V15.4C27.41 16.65 27.18 17.65 26.71 18.4C26.24 19.15 25.6 19.68 24.79 20C23.99 20.33 23.07 20.5 22.03 20.5C20.74 20.5 19.7 20.32 18.93 19.96C18.17 19.61 17.6 19.12 17.23 18.48C16.87 17.85 16.63 17.13 16.51 16.3ZM16.31 10.8C16.31 9.73001 16.52 8.87001 16.93 8.20001C17.36 7.52001 17.9 7.02001 18.55 6.70001C19.2 6.37001 19.88 6.20001 20.57 6.20001C21.34 6.20001 22.03 6.38001 22.63 6.74001C23.24 7.09001 23.73 7.60001 24.09 8.28001C24.45 8.96001 24.63 9.80001 24.63 10.8C24.63 11.8 24.45 12.63 24.09 13.32C23.73 14 23.24 14.52 22.63 14.88C22.03 15.23 21.34 15.4 20.57 15.4C19.88 15.4 19.2 15.24 18.55 14.92C17.9 14.59 17.36 14.08 16.93 13.4C16.52 12.72 16.31 11.85 16.31 10.8ZM20.43 10.8C20.43 11.13 20.5 11.42 20.65 11.66C20.8 11.9 21 12.09 21.25 12.22C21.5 12.34 21.78 12.4 22.07 12.4C22.34 12.4 22.6 12.35 22.85 12.24C23.1 12.12 23.31 11.95 23.47 11.72C23.63 11.48 23.71 11.17 23.71 10.8C23.71 10.52 23.66 10.28 23.57 10.08C23.48 9.88001 23.35 9.71001 23.19 9.58001C23.03 9.45001 22.85 9.35001 22.65 9.30001C22.46 9.23001 22.27 9.20001 22.07 9.20001C21.78 9.20001 21.5 9.27001 21.25 9.40001C21 9.52001 20.8 9.70001 20.65 9.94001C20.5 10.17 20.43 10.45 20.43 10.8ZM34.76 15.8C33.56 15.8 32.53 15.61 31.66 15.22C30.81 14.83 30.15 14.29 29.68 13.58C29.23 12.86 29 12 29 11C29 10 29.22 9.13001 29.66 8.42001C30.1 7.70001 30.73 7.15001 31.56 6.78001C32.39 6.39001 33.39 6.20001 34.56 6.20001C35.73 6.20001 36.69 6.38001 37.48 6.74001C38.28 7.09001 38.88 7.61001 39.28 8.30001C39.69 8.98001 39.9 9.82001 39.9 10.82V11.34C39.9 11.5 39.89 11.65 39.86 11.8H31.12V9.92001H36.24L35.48 10.84C35.56 10.72 35.63 10.59 35.68 10.46C35.73 10.33 35.76 10.21 35.76 10.12C35.76 9.80001 35.71 9.53001 35.6 9.30001C35.49 9.07001 35.34 8.90001 35.14 8.78001C34.95 8.66001 34.73 8.60001 34.46 8.60001C34.1 8.60001 33.81 8.69001 33.58 8.86001C33.35 9.02001 33.19 9.28001 33.08 9.64001C32.97 9.99001 32.92 10.44 32.92 11C32.91 11.47 32.96 11.87 33.08 12.2C33.21 12.52 33.4 12.77 33.64 12.94C33.89 13.11 34.2 13.2 34.56 13.2C35.04 13.2 35.44 13.13 35.76 12.98C36.08 12.82 36.32 12.59 36.48 12.3L40.04 12.86C39.55 13.85 38.86 14.59 37.98 15.08C37.11 15.56 36.04 15.8 34.76 15.8ZM47.59 10C47.59 9.59001 47.53 9.27001 47.41 9.04001C47.29 8.80001 47.03 8.68001 46.63 8.68001C46.4 8.68001 46.2 8.73001 46.03 8.82001C45.86 8.91001 45.72 9.06001 45.63 9.26001C45.54 9.45001 45.49 9.69001 45.49 10V15.6H41.59V6.40001H45.49V7.74001C45.74 7.27001 46.1 6.90001 46.55 6.62001C47.02 6.33001 47.61 6.18001 48.33 6.18001C49.58 6.18001 50.46 6.48001 50.95 7.08001C51.44 7.67001 51.69 8.51001 51.69 9.60001V15.6H47.59V10ZM57.32 11C57.32 11.4 57.41 11.74 57.6 12.02C57.79 12.29 58.03 12.49 58.34 12.64C58.66 12.77 59 12.84 59.36 12.84C59.65 12.84 59.94 12.8 60.22 12.72C60.51 12.64 60.79 12.51 61.06 12.34C61.33 12.17 61.56 11.94 61.76 11.66V15.18C61.44 15.35 61.07 15.5 60.66 15.62C60.26 15.74 59.69 15.8 58.96 15.8C57.87 15.8 56.89 15.61 56.04 15.22C55.19 14.83 54.51 14.28 54.02 13.56C53.54 12.84 53.3 11.99 53.3 11C53.3 10.01 53.54 9.15001 54.02 8.44001C54.51 7.72001 55.19 7.17001 56.04 6.78001C56.89 6.39001 57.87 6.20001 58.96 6.20001C59.69 6.20001 60.26 6.26001 60.66 6.38001C61.07 6.50001 61.44 6.63001 61.76 6.78001V10.32C61.56 10.03 61.31 9.80001 61.02 9.64001C60.73 9.47001 60.43 9.35001 60.14 9.28001C59.85 9.20001 59.59 9.16001 59.36 9.16001C59 9.16001 58.66 9.25001 58.34 9.42001C58.03 9.58001 57.79 9.80001 57.6 10.08C57.41 10.35 57.32 10.65 57.32 11ZM63.46 3.16001C63.46 2.57001 63.67 2.10001 64.08 1.74001C64.51 1.38001 65.02 1.20001 65.62 1.20001C66.22 1.20001 66.73 1.38001 67.14 1.74001C67.57 2.10001 67.78 2.57001 67.78 3.16001C67.78 3.75001 67.57 4.22001 67.14 4.58001C66.73 4.94001 66.22 5.12001 65.62 5.12001C65.02 5.12001 64.51 4.94001 64.08 4.58001C63.67 4.22001 63.46 3.75001 63.46 3.16001ZM63.74 6.40001H67.48V15.6H63.74V6.40001ZM72.8 12.7C72.8 12.87 72.84 13.02 72.92 13.14C73.01 13.25 73.13 13.33 73.26 13.4C73.41 13.45 73.56 13.48 73.72 13.48C73.97 13.48 74.21 13.43 74.44 13.32C74.68 13.2 74.87 13.02 75.02 12.78C75.18 12.53 75.26 12.2 75.26 11.8L75.58 13C75.58 13.59 75.43 14.09 75.14 14.52C74.85 14.93 74.45 15.25 73.94 15.48C73.43 15.69 72.86 15.8 72.22 15.8C71.62 15.8 71.07 15.69 70.56 15.48C70.05 15.27 69.65 14.95 69.34 14.52C69.03 14.08 68.88 13.55 68.88 12.92C68.88 12.04 69.19 11.35 69.8 10.86C70.43 10.35 71.33 10.1 72.5 10.1C72.98 10.1 73.44 10.14 73.88 10.22C74.33 10.3 74.73 10.41 75.08 10.56C75.44 10.69 75.72 10.87 75.92 11.08V12.66C75.69 12.46 75.39 12.3 75 12.18C74.63 12.06 74.24 12 73.84 12C73.59 12 73.38 12.03 73.22 12.08C73.07 12.13 72.97 12.21 72.9 12.32C72.83 12.41 72.8 12.54 72.8 12.7ZM70.78 9.64001L69.6 7.12001C70.24 6.87001 70.96 6.63001 71.76 6.42001C72.57 6.21001 73.42 6.10001 74.3 6.10001C75.18 6.10001 75.95 6.22001 76.66 6.46001C77.37 6.70001 77.93 7.05001 78.34 7.52001C78.75 7.97001 78.96 8.53001 78.96 9.20001V15.6H75.26V10.16C75.26 9.99001 75.23 9.83001 75.18 9.68001C75.13 9.53001 75.04 9.41001 74.92 9.30001C74.8 9.18001 74.64 9.09001 74.44 9.04001C74.24 8.97001 74 8.94001 73.72 8.94001C73.35 8.94001 72.95 8.99001 72.54 9.08001C72.13 9.16001 71.76 9.26001 71.44 9.38001C71.12 9.49001 70.9 9.57001 70.78 9.64001Z" fill="white"/>
</g>
<defs>
<clipPath id="clip0_154_197">
<rect width="135.58" height="20.5" fill="white"/>
</clipPath>
</defs>
</svg>
