<svg width="210" height="134" viewBox="0 0 210 134" fill="none" xmlns="http://www.w3.org/2000/svg">
<g clip-path="url(#clip0_650_2497)">
<path d="M19.47 89.97V78.46L15.57 89.97H9.55002L5.65002 78.46V89.97H0.460022V75.38H9.75002L12.82 85.3L15.87 75.38H25.16V89.97H19.46H19.47Z" fill="white"/>
<path d="M28.07 89.97V75.38H42.05V78.41H34.13V81.14H41.54V84.13H34.13V86.94H42.13V89.97H28.07Z" fill="white"/>
<path d="M54.78 89.97L49.61 79.59V89.97H44.42V75.38H53.35L58.52 85.74V75.38H63.71V89.97H54.78Z" fill="white"/>
<path d="M75 89.97V75.38H81.14V89.97H75Z" fill="white"/>
<path d="M94.42 89.97L89.25 79.59V89.97H84.06V75.38H92.99L98.16 85.74V75.38H103.35V89.97H94.42Z" fill="white"/>
<path d="M131.51 85.94C131.51 86.79 131.32 87.48 130.94 88C130.56 88.52 130.07 88.93 129.48 89.22C128.88 89.51 128.22 89.71 127.49 89.81C126.76 89.91 126.06 89.96 125.37 89.96H114.64V75.37H124.6C126.81 75.37 128.41 75.7 129.4 76.35C130.39 77 130.88 77.94 130.88 79.16C130.88 79.72 130.79 80.2 130.62 80.57C130.44 80.95 130.2 81.26 129.89 81.51C129.58 81.76 129.22 81.96 128.81 82.12C128.4 82.27 127.95 82.41 127.47 82.53C127.95 82.58 128.44 82.68 128.91 82.81C129.39 82.95 129.82 83.14 130.2 83.41C130.58 83.67 130.9 84.01 131.14 84.41C131.38 84.81 131.5 85.32 131.5 85.93L131.51 85.94ZM124.84 79.61C124.84 79.37 124.81 79.15 124.74 78.95C124.67 78.75 124.55 78.58 124.38 78.44C124.2 78.3 123.97 78.19 123.66 78.12C123.36 78.05 122.96 78.01 122.48 78.01H120.7V81.2H122.48C123.37 81.2 123.99 81.07 124.33 80.81C124.67 80.55 124.85 80.15 124.85 79.62L124.84 79.61ZM125.38 85.51C125.38 84.9 125.16 84.46 124.73 84.19C124.3 83.92 123.55 83.78 122.49 83.78H120.69V87.38H122.49C123.55 87.38 124.3 87.22 124.73 86.9C125.16 86.58 125.38 86.12 125.38 85.51Z" fill="white"/>
<path d="M133.63 89.97V75.38H139.77V86.61H146.58V89.96H133.63V89.97Z" fill="white"/>
<path d="M162.33 89.97L161.24 87.55H153.72L152.59 89.97H146.57L154 75.38H161.66L169.09 89.97H162.32H162.33ZM157.51 79.08L155.11 84.35H159.84L157.52 79.08H157.51Z" fill="white"/>
<path d="M186.98 86.61C186.7 87.23 186.33 87.75 185.88 88.19C185.43 88.62 184.91 88.98 184.32 89.26C183.73 89.54 183.11 89.76 182.46 89.93C181.81 90.09 181.14 90.2 180.45 90.26C179.76 90.32 179.1 90.35 178.45 90.35C176.62 90.35 175.09 90.17 173.85 89.8C172.62 89.44 171.63 88.92 170.88 88.25C170.13 87.58 169.6 86.78 169.27 85.84C168.95 84.9 168.79 83.84 168.79 82.67C168.79 82.09 168.84 81.5 168.95 80.9C169.06 80.3 169.25 79.72 169.53 79.14C169.81 78.57 170.18 78.03 170.64 77.52C171.1 77.02 171.69 76.58 172.41 76.21C173.12 75.84 173.98 75.54 174.97 75.32C175.96 75.1 177.11 74.99 178.43 74.99C179.52 74.99 180.6 75.08 181.66 75.27C182.72 75.46 183.68 75.77 184.52 76.22C185.36 76.66 186.05 77.26 186.57 78C187.1 78.74 187.37 79.67 187.4 80.79H181.18C181.09 79.87 180.81 79.22 180.36 78.82C179.91 78.42 179.24 78.22 178.35 78.22C177.78 78.22 177.3 78.33 176.9 78.56C176.5 78.79 176.16 79.11 175.9 79.51C175.64 79.91 175.45 80.39 175.32 80.92C175.2 81.46 175.14 82.04 175.14 82.66C175.14 83.28 175.19 83.84 175.29 84.38C175.39 84.92 175.57 85.39 175.82 85.79C176.07 86.19 176.41 86.51 176.84 86.75C177.27 86.99 177.81 87.1 178.46 87.1C179.24 87.1 179.87 86.91 180.35 86.53C180.83 86.15 181.11 85.45 181.21 84.43H187.47C187.43 85.25 187.27 85.97 186.99 86.59L186.98 86.61Z" fill="white"/>
<path d="M189.53 89.97V75.38H195.67V89.97H189.53ZM201.46 89.97L195.68 82.37L201.2 75.38H208.61L202.59 82.09L209.22 89.97H201.46Z" fill="white"/>
<path d="M69.03 69.6V37.01L60.99 69.6H33.31L24.98 38.2L25.24 69.6H0V0.539978H39.42L47.31 38.79L54.6 0.539978H93.59V69.6H69.03Z" fill="white"/>
<path d="M130.45 0H101.08V69.65H130.45V0Z" fill="white"/>
<path d="M208.24 50.88C208.24 54.93 207.45 58.2 205.88 60.71C204.31 63.21 202.27 65.16 199.77 66.54C197.27 67.92 194.5 68.85 191.46 69.33C188.42 69.81 185.47 70.05 182.61 70.05H137.83V0.599976H179.4C188.62 0.599976 195.3 2.14998 199.43 5.25998C203.56 8.36998 205.63 12.83 205.63 18.66C205.63 21.35 205.26 23.59 204.53 25.38C203.8 27.17 202.79 28.66 201.49 29.85C200.2 31.03 198.69 31.99 196.98 32.73C195.26 33.47 193.4 34.12 191.37 34.7C193.39 34.96 195.4 35.41 197.4 36.05C199.39 36.69 201.19 37.64 202.8 38.89C204.4 40.14 205.71 41.73 206.72 43.66C207.73 45.59 208.24 47.99 208.24 50.88ZM178.72 22.05C178.72 21.1 178.62 20.23 178.41 19.44C178.2 18.65 177.83 17.98 177.29 17.42C176.75 16.87 176.01 16.45 175.07 16.15C174.13 15.86 172.92 15.71 171.42 15.71H165.93V28.28H171.42C174.17 28.28 176.07 27.77 177.13 26.74C178.19 25.71 178.72 24.14 178.72 22.04V22.05ZM180.21 48.37C180.21 47.42 180.09 46.55 179.86 45.76C179.63 44.97 179.21 44.3 178.61 43.74C178.01 43.19 177.18 42.77 176.14 42.47C175.09 42.18 173.74 42.03 172.06 42.03H165.93V54.6H172.06C175.13 54.6 177.25 54.09 178.44 53.06C179.62 52.03 180.22 50.46 180.22 48.36L180.21 48.37Z" fill="white"/>
<path d="M36.34 110.78C36.18 110.81 36.09 110.87 36.08 110.95C36.08 111.03 36.09 111.12 36.14 111.22C36.19 111.29 36.24 111.34 36.3 111.38C36.36 111.42 36.45 111.42 36.58 111.38C36.63 111.61 36.67 111.83 36.71 112.04C36.75 112.25 36.78 112.47 36.81 112.7C36.84 113.17 36.85 113.59 36.84 113.94C36.83 114.29 36.76 114.7 36.62 115.18C36.49 115.69 36.3 116.15 36.06 116.59C35.82 117.02 35.49 117.41 35.06 117.75C34.68 118.07 34.28 118.28 33.84 118.38C33.4 118.48 32.95 118.54 32.48 118.57C32.28 118.57 32.03 118.57 31.71 118.57C31.39 118.57 31.08 118.57 30.78 118.57C30.48 118.57 30.2 118.57 29.96 118.57C29.72 118.57 29.57 118.57 29.52 118.57L29.47 125.25L26.75 125.23C26.73 125.17 26.72 125.11 26.71 125.06C26.71 125.01 26.7 124.95 26.7 124.89V123.91C26.7 123.73 26.7 123.56 26.74 123.38C26.77 123.21 26.92 123.07 27.18 122.96C26.98 122.91 26.84 122.87 26.74 122.83L26.8 115.61C26.8 115.61 27.04 115.61 27.39 115.61C27.73 115.61 28.13 115.61 28.58 115.61C29.03 115.61 29.49 115.61 29.96 115.61C30.43 115.61 30.83 115.61 31.16 115.61C31.37 115.61 31.58 115.61 31.78 115.59C31.98 115.57 32.19 115.55 32.4 115.52C32.92 115.47 33.32 115.22 33.61 114.76C33.68 114.64 33.75 114.54 33.82 114.46C33.89 114.38 34.02 114.33 34.2 114.31C34.07 114.19 34 114.14 33.99 114.15C33.99 114.15 33.98 114.1 33.98 113.96C33.96 113.75 33.95 113.53 33.95 113.31C33.95 113.09 33.91 112.88 33.85 112.68C33.59 111.89 33.05 111.47 32.22 111.43C31.6 111.39 30.98 111.37 30.35 111.37C29.72 111.37 29.1 111.35 28.48 111.33H26.84L26.86 108.41C26.89 108.41 26.92 108.41 26.96 108.4C26.99 108.4 27.02 108.39 27.06 108.39C28.05 108.41 29.05 108.43 30.05 108.45C31.04 108.47 32.04 108.49 33.04 108.51C33.82 108.51 34.48 108.72 35.02 109.11C35.56 109.5 36 110.06 36.35 110.79L36.34 110.78ZM28.12 123.73C28.25 123.83 28.34 123.89 28.39 123.9C28.44 123.92 28.49 123.88 28.54 123.8C28.56 123.77 28.57 123.73 28.57 123.68C28.57 123.63 28.55 123.6 28.52 123.58C28.34 123.47 28.21 123.51 28.13 123.72L28.12 123.73ZM30.72 109.16C30.72 109.16 30.66 109.25 30.63 109.28C30.61 109.31 30.59 109.34 30.59 109.38C30.59 109.4 30.61 109.42 30.65 109.45C30.69 109.48 30.72 109.49 30.74 109.48C30.77 109.46 30.8 109.44 30.83 109.41C30.85 109.38 30.88 109.35 30.92 109.31C30.89 109.28 30.86 109.25 30.82 109.24C30.78 109.23 30.76 109.2 30.72 109.17V109.16ZM31.51 118.2V118.08C31.43 118.06 31.36 118.05 31.29 118.03C31.22 118.01 31.15 118.01 31.07 118.03C30.99 118.05 30.93 118.08 30.91 118.14C30.89 118.2 30.89 118.27 30.92 118.35C30.97 118.48 31.07 118.5 31.21 118.4C31.26 118.37 31.31 118.34 31.36 118.3C31.41 118.27 31.46 118.24 31.51 118.2ZM31.97 109.32C31.97 109.32 31.91 109.29 31.9 109.27C31.88 109.25 31.87 109.25 31.85 109.25C31.82 109.25 31.8 109.25 31.79 109.27C31.79 109.29 31.76 109.3 31.73 109.32C31.76 109.4 31.79 109.44 31.83 109.44C31.86 109.44 31.89 109.43 31.9 109.4C31.92 109.38 31.94 109.35 31.97 109.32ZM32.74 117.56C32.77 117.46 32.81 117.39 32.84 117.33C32.87 117.27 32.9 117.21 32.91 117.15C32.93 117.12 32.91 117.09 32.85 117.05C32.79 117.02 32.76 117 32.74 117C32.61 117.1 32.53 117.18 32.52 117.24C32.52 117.27 32.54 117.31 32.58 117.36C32.62 117.41 32.67 117.48 32.74 117.56ZM33.17 116.23C33.17 116.23 33.1 116.32 33.06 116.36C33.02 116.4 33.01 116.44 33.02 116.47C33.02 116.54 33.08 116.59 33.19 116.62C33.19 116.64 33.21 116.62 33.25 116.58C33.29 116.54 33.31 116.5 33.31 116.47C33.31 116.44 33.29 116.41 33.26 116.37C33.23 116.34 33.2 116.29 33.16 116.22L33.17 116.23ZM34.09 111.12L33.99 111.02C33.92 111.05 33.88 111.08 33.84 111.12L33.91 111.19C33.91 111.19 34 111.17 34.08 111.12H34.09ZM34.84 111.64C34.87 111.74 34.89 111.83 34.9 111.91C34.9 111.99 34.93 112.06 34.96 112.11C34.99 112.14 35.04 112.16 35.09 112.16C35.15 112.16 35.19 112.16 35.22 112.19C35.24 112.14 35.25 112.09 35.27 112.03C35.29 111.97 35.27 111.94 35.25 111.92C35.2 111.87 35.14 111.83 35.07 111.78C35 111.74 34.92 111.69 34.84 111.64ZM35.88 110.56L35.71 110.44C35.71 110.44 35.65 110.45 35.64 110.48C35.62 110.5 35.6 110.52 35.57 110.54C35.6 110.56 35.62 110.58 35.63 110.6C35.63 110.62 35.66 110.64 35.69 110.64C35.71 110.66 35.77 110.64 35.89 110.57L35.88 110.56ZM35.81 112.92C35.66 113.1 35.59 113.2 35.59 113.24C35.59 113.35 35.65 113.43 35.76 113.46C35.84 113.49 35.9 113.49 35.94 113.44C35.98 113.39 35.99 113.33 35.98 113.25C35.98 113.22 35.96 113.18 35.93 113.13C35.9 113.08 35.86 113.02 35.81 112.93V112.92Z" fill="#33FF33"/>
<path d="M45.27 117.99C46 119.22 46.72 120.44 47.43 121.67C48.14 122.9 48.88 124.12 49.62 125.37C49.54 125.39 49.46 125.39 49.4 125.39C49.33 125.39 49.28 125.39 49.23 125.39L46.78 125.37C46.47 125.38 46.25 125.27 46.12 125.02C45.51 123.99 44.89 122.96 44.26 121.94C43.63 120.92 43.01 119.89 42.4 118.85C42.32 118.74 42.24 118.62 42.16 118.52C42.08 118.41 42 118.3 41.92 118.19C41.87 118.12 41.8 118.08 41.7 118.04C41.6 118.02 41.51 118.01 41.42 118C41.33 118 41.22 117.98 41.09 117.96V118.35C41 118.37 40.93 118.37 40.87 118.37C40.8 118.37 40.72 118.37 40.63 118.39V120.25C40.52 120.28 40.42 120.31 40.31 120.32C40.2 120.34 40.15 120.42 40.15 120.56C40.15 120.69 40.2 120.75 40.31 120.75C40.42 120.75 40.51 120.76 40.59 120.81L40.56 125.31L37.87 125.29L37.91 120.08C38.14 120.05 38.37 120.05 38.6 120.08C38.83 120.11 39.05 120.18 39.26 120.29C39.47 120.39 39.64 120.33 39.78 120.12C39.94 119.86 40.14 119.67 40.37 119.54C40.5 119.48 40.57 119.39 40.57 119.28C40.57 119.17 40.51 119.08 40.38 119C40.1 118.85 39.96 118.62 39.94 118.31C39.89 117.9 39.66 117.67 39.24 117.62C38.96 117.57 38.76 117.45 38.63 117.25C38.52 117.33 38.41 117.41 38.32 117.48C38.23 117.55 38.09 117.56 37.92 117.51C37.91 117.2 37.9 116.89 37.92 116.57C37.93 116.25 37.92 115.92 37.92 115.58C38 115.56 38.07 115.55 38.13 115.55C38.19 115.55 38.24 115.54 38.29 115.54C38.78 115.54 39.27 115.54 39.76 115.54C40.25 115.54 40.73 115.54 41.2 115.56C41.69 115.58 42.17 115.58 42.66 115.57C43.14 115.56 43.63 115.54 44.12 115.53C44.66 115.5 45.05 115.36 45.3 115.1C45.55 114.84 45.71 114.48 45.8 114.03C45.83 113.87 45.87 113.71 45.9 113.55C45.93 113.4 45.93 113.25 45.9 113.12C45.85 112.92 45.78 112.74 45.68 112.56C45.58 112.38 45.48 112.2 45.37 112.02C45.16 111.71 44.84 111.55 44.42 111.55L42.51 111.46L38.3 111.43H38.03C38.01 111.35 38 111.17 37.98 110.9C37.97 110.63 37.96 110.34 37.96 110.03C37.96 109.72 37.96 109.42 37.98 109.14C37.99 108.85 38 108.64 38.02 108.49C38.08 108.49 38.15 108.49 38.2 108.48C38.26 108.48 38.32 108.47 38.38 108.47C39.26 108.47 40.14 108.47 41.02 108.47C41.9 108.47 42.79 108.47 43.69 108.5C44.02 108.52 44.34 108.54 44.66 108.57C44.98 108.6 45.3 108.64 45.63 108.69C46.66 108.84 47.44 109.41 47.97 110.37C48.26 110.89 48.46 111.44 48.56 112.01C48.66 112.58 48.69 113.17 48.66 113.77C48.63 114.08 48.58 114.39 48.53 114.7C48.48 115.01 48.39 115.31 48.25 115.6C48 116.17 47.67 116.64 47.26 117.01C46.85 117.38 46.35 117.66 45.76 117.83C45.63 117.88 45.48 117.93 45.32 117.97L45.27 117.99ZM38.48 116.29C38.45 116.37 38.42 116.43 38.39 116.47C38.37 116.51 38.36 116.55 38.38 116.58C38.41 116.63 38.44 116.67 38.48 116.69C38.51 116.71 38.54 116.74 38.58 116.78C38.66 116.7 38.7 116.63 38.7 116.59C38.68 116.54 38.66 116.5 38.62 116.47C38.58 116.44 38.54 116.38 38.49 116.3L38.48 116.29ZM38.75 125.28C38.75 125.28 38.81 125.28 38.82 125.27C38.84 125.27 38.86 125.26 38.89 125.26V124.99C38.89 124.99 38.82 125.01 38.77 125.01H38.72C38.72 125.01 38.72 125.1 38.73 125.14C38.73 125.18 38.74 125.23 38.74 125.27L38.75 125.28ZM39.49 121.54C39.49 121.54 39.49 121.48 39.52 121.47C39.54 121.45 39.54 121.43 39.52 121.4C39.5 121.37 39.49 121.34 39.47 121.33C39.45 121.32 39.44 121.29 39.42 121.26C39.37 121.21 39.35 121.22 39.35 121.28C39.35 121.36 39.35 121.43 39.37 121.48C39.39 121.5 39.4 121.5 39.42 121.5C39.44 121.5 39.46 121.5 39.49 121.53C39.56 121.55 39.62 121.57 39.67 121.6C39.73 121.63 39.78 121.6 39.83 121.5C39.75 121.42 39.68 121.4 39.63 121.44C39.58 121.48 39.53 121.52 39.48 121.55L39.49 121.54ZM40.59 122.06C40.59 122.06 40.5 121.99 40.47 121.95C40.44 121.91 40.41 121.89 40.37 121.89C40.34 121.91 40.3 121.93 40.27 121.95C40.24 121.97 40.2 122 40.17 122.03C40.2 122.06 40.23 122.1 40.25 122.14C40.27 122.18 40.3 122.2 40.34 122.2C40.37 122.2 40.4 122.18 40.44 122.15C40.47 122.12 40.52 122.09 40.59 122.05V122.06ZM40.4 120.91C40.4 120.91 40.34 120.89 40.3 120.86C40.28 120.89 40.27 120.92 40.25 120.95C40.23 120.97 40.23 121 40.22 121.04C40.22 121.07 40.23 121.09 40.26 121.1C40.28 121.1 40.3 121.13 40.32 121.16C40.39 121.13 40.43 121.1 40.44 121.06C40.44 121.03 40.44 121 40.42 120.99C40.4 120.97 40.4 120.95 40.4 120.92V120.91ZM45.52 120.21C45.58 120.47 45.68 120.56 45.81 120.48C45.84 120.46 45.86 120.44 45.86 120.39C45.86 120.35 45.86 120.31 45.89 120.28C45.84 120.26 45.79 120.25 45.73 120.24C45.67 120.24 45.6 120.22 45.52 120.2V120.21ZM47.61 115.51C47.61 115.51 47.56 115.45 47.55 115.42C47.55 115.4 47.52 115.37 47.49 115.33C47.47 115.33 47.45 115.33 47.42 115.34C47.39 115.34 47.37 115.36 47.37 115.38C47.37 115.46 47.39 115.51 47.42 115.53C47.44 115.55 47.5 115.53 47.62 115.51H47.61Z" fill="#33FF33"/>
<path d="M51.22 117.71C51.22 117.71 51.16 117.73 51.13 117.73C51.11 117.73 51.07 117.73 51.02 117.75V116.92L53.79 116.94C53.82 117.25 53.84 117.55 53.84 117.85C53.84 118.14 53.88 118.43 53.94 118.71C54.03 119.31 54.19 119.93 54.42 120.55C54.5 120.81 54.62 121.05 54.78 121.26C54.94 121.47 55.11 121.68 55.29 121.88C55.61 122.21 55.97 122.43 56.35 122.55C56.73 122.67 57.14 122.74 57.56 122.78C57.69 122.8 57.83 122.77 57.96 122.7C58.1 122.63 58.24 122.57 58.39 122.52C58.54 122.5 58.71 122.48 58.91 122.45C58.94 122.42 58.97 122.37 58.98 122.29C59 122.22 59.03 122.16 59.08 122.13C59.82 121.48 60.3 120.66 60.52 119.67C60.96 117.83 60.96 116.01 60.54 114.21C60.37 113.49 60.04 112.87 59.58 112.34C59.09 111.78 58.45 111.46 57.65 111.37C57.58 111.35 57.48 111.34 57.33 111.34L57.35 108.33C57.58 108.3 57.8 108.3 58.01 108.33C58.22 108.36 58.43 108.41 58.65 108.46C59.4 108.61 60.06 108.89 60.63 109.29C61.2 109.69 61.69 110.21 62.11 110.83C62.46 111.32 62.75 111.85 62.95 112.4C63.15 112.95 63.32 113.54 63.43 114.14C63.63 115.28 63.72 116.42 63.69 117.54C63.66 118.66 63.48 119.79 63.16 120.91C62.87 121.97 62.38 122.91 61.67 123.74C61.06 124.47 60.36 124.99 59.58 125.3C58.79 125.61 57.94 125.74 57.01 125.68C55.88 125.64 54.92 125.35 54.13 124.83C53.33 124.3 52.67 123.55 52.14 122.56C51.93 122.18 51.76 121.79 51.62 121.39C51.48 120.99 51.39 120.58 51.32 120.15C51.29 119.99 51.26 119.83 51.23 119.68C51.2 119.53 51.17 119.38 51.14 119.21C51.12 119.08 51.11 118.95 51.11 118.83C51.11 118.71 51.08 118.58 51.05 118.45C51.03 118.32 51.03 118.18 51.03 118.05C51.03 117.91 51.1 117.79 51.23 117.67L51.22 117.71ZM53.06 120.15C52.91 120.12 52.82 120.11 52.79 120.12C52.76 120.14 52.72 120.22 52.67 120.36C52.8 120.34 52.88 120.33 52.92 120.31C52.95 120.29 53 120.24 53.07 120.14L53.06 120.15ZM52.83 121.22C52.91 121.17 52.99 121.13 53.08 121.09C53.16 121.05 53.24 121.01 53.33 120.96C53.05 120.88 52.89 120.96 52.84 121.23L52.83 121.22ZM53.16 123.33C53.16 123.33 53.21 123.3 53.22 123.29C53.22 123.29 53.25 123.27 53.28 123.25C53.33 123.2 53.35 123.16 53.33 123.13C53.31 123.1 53.27 123.05 53.21 122.98C53.18 123.01 53.15 123.04 53.12 123.05C53.1 123.07 53.08 123.09 53.08 123.12C53.08 123.15 53.08 123.19 53.1 123.22C53.12 123.25 53.13 123.29 53.15 123.32L53.16 123.33ZM54.7 123.47C54.6 123.24 54.5 123.18 54.38 123.27C54.36 123.29 54.36 123.32 54.36 123.37C54.39 123.39 54.44 123.4 54.49 123.41C54.55 123.41 54.62 123.44 54.7 123.47ZM61.3 120.53C61.46 120.66 61.61 120.67 61.74 120.56C61.76 120.56 61.76 120.54 61.76 120.5C61.76 120.46 61.76 120.43 61.74 120.41C61.54 120.29 61.4 120.33 61.3 120.53Z" fill="#33FF33"/>
<path d="M71.25 125.55L68.48 125.53C68.51 125.28 68.51 125.04 68.48 124.81C68.44 124.57 68.5 124.34 68.64 124.11V123.99C68.51 123.91 68.45 123.81 68.47 123.71C68.49 123.61 68.5 123.49 68.5 123.38L68.58 112.27V111.66C68.26 111.62 67.94 111.61 67.63 111.63C67.32 111.65 67 111.64 66.68 111.63H64.77L64.79 108.7L75.12 108.78V111.69L71.35 111.66L71.24 125.56L71.25 125.55ZM69.08 120.42C69.02 120.39 68.97 120.37 68.96 120.37C68.94 120.4 68.93 120.44 68.91 120.47C68.89 120.5 68.88 120.53 68.86 120.57L68.93 120.64L69.08 120.42ZM70.24 122.7C70.32 122.62 70.36 122.57 70.36 122.55C70.36 122.53 70.35 122.52 70.32 122.5C70.3 122.48 70.28 122.47 70.26 122.45C70.24 122.48 70.23 122.5 70.21 122.51C70.19 122.51 70.18 122.54 70.16 122.57C70.16 122.59 70.16 122.6 70.18 122.62C70.2 122.64 70.21 122.66 70.23 122.69L70.24 122.7ZM70.95 123.49C70.87 123.42 70.82 123.4 70.8 123.42C70.78 123.42 70.74 123.45 70.68 123.52C70.71 123.55 70.74 123.57 70.75 123.58C70.77 123.58 70.79 123.61 70.82 123.64C70.84 123.62 70.88 123.58 70.94 123.49H70.95Z" fill="#33FF33"/>
<path d="M76.3 117.9C76.3 117.9 76.24 117.92 76.21 117.92C76.19 117.92 76.15 117.92 76.1 117.94V117.11L78.87 117.13C78.9 117.44 78.92 117.74 78.92 118.04C78.92 118.33 78.96 118.62 79.02 118.9C79.11 119.5 79.27 120.12 79.5 120.74C79.58 121 79.7 121.24 79.86 121.45C80.02 121.66 80.19 121.87 80.37 122.07C80.69 122.4 81.05 122.62 81.43 122.74C81.81 122.86 82.22 122.93 82.64 122.97C82.77 122.99 82.91 122.96 83.04 122.89C83.18 122.82 83.32 122.76 83.47 122.71C83.62 122.69 83.79 122.67 83.99 122.64C84.02 122.61 84.05 122.56 84.06 122.48C84.08 122.41 84.11 122.35 84.16 122.32C84.9 121.67 85.38 120.85 85.6 119.86C86.04 118.02 86.04 116.2 85.62 114.4C85.45 113.68 85.12 113.06 84.66 112.53C84.17 111.97 83.53 111.65 82.73 111.56C82.66 111.54 82.56 111.53 82.41 111.53L82.43 108.52C82.66 108.49 82.88 108.49 83.09 108.52C83.3 108.55 83.51 108.6 83.73 108.65C84.48 108.8 85.14 109.08 85.71 109.48C86.28 109.88 86.77 110.4 87.19 111.02C87.54 111.51 87.83 112.04 88.03 112.59C88.24 113.15 88.4 113.73 88.51 114.33C88.71 115.47 88.8 116.61 88.77 117.73C88.74 118.85 88.56 119.98 88.24 121.1C87.95 122.16 87.46 123.1 86.75 123.93C86.14 124.66 85.44 125.18 84.66 125.49C83.88 125.8 83.02 125.93 82.09 125.87C80.96 125.83 80 125.54 79.21 125.02C78.41 124.49 77.75 123.74 77.22 122.75C77.01 122.37 76.84 121.98 76.7 121.58C76.56 121.18 76.47 120.77 76.4 120.34C76.37 120.18 76.34 120.02 76.31 119.87C76.28 119.72 76.25 119.57 76.22 119.4C76.2 119.27 76.19 119.14 76.19 119.02C76.19 118.9 76.16 118.77 76.13 118.64C76.11 118.51 76.11 118.37 76.11 118.24C76.11 118.1 76.18 117.98 76.31 117.86L76.3 117.9ZM78.14 120.34C77.99 120.31 77.9 120.3 77.87 120.31C77.84 120.33 77.8 120.41 77.75 120.55C77.88 120.53 77.96 120.52 78 120.5C78.03 120.48 78.08 120.43 78.15 120.33L78.14 120.34ZM77.91 121.42C77.99 121.37 78.07 121.33 78.16 121.29C78.24 121.25 78.32 121.21 78.41 121.16C78.13 121.08 77.97 121.16 77.92 121.43L77.91 121.42ZM78.24 123.52C78.24 123.52 78.29 123.49 78.3 123.48C78.31 123.47 78.33 123.46 78.36 123.44C78.41 123.39 78.43 123.35 78.41 123.32C78.39 123.29 78.35 123.24 78.29 123.17C78.26 123.2 78.23 123.23 78.2 123.24C78.18 123.26 78.16 123.28 78.16 123.31C78.16 123.34 78.16 123.38 78.18 123.41C78.2 123.44 78.21 123.48 78.23 123.51L78.24 123.52ZM79.78 123.66C79.68 123.43 79.58 123.37 79.46 123.46C79.44 123.48 79.44 123.51 79.44 123.56C79.47 123.58 79.52 123.59 79.57 123.6C79.63 123.6 79.7 123.63 79.78 123.66ZM86.38 120.72C86.54 120.85 86.69 120.86 86.82 120.75C86.84 120.75 86.84 120.73 86.84 120.69C86.84 120.65 86.84 120.62 86.82 120.6C86.62 120.48 86.48 120.52 86.38 120.72Z" fill="#33FF33"/>
<path d="M101.3 115.72L98.66 115.7C98.61 115.39 98.57 115.09 98.52 114.79C98.47 114.5 98.42 114.2 98.35 113.91C98.3 113.65 98.23 113.41 98.14 113.2C98 112.81 97.79 112.49 97.54 112.25C97.28 112.01 97 111.85 96.69 111.75C96.38 111.66 96.06 111.63 95.72 111.66C95.39 111.69 95.08 111.78 94.8 111.92C94.73 111.95 94.67 111.99 94.6 112.03C94.53 112.07 94.47 112.11 94.4 112.14C94.35 112.07 94.31 112.01 94.27 111.96C94.23 111.9 94.18 111.83 94.11 111.75C94.01 111.88 93.99 111.99 94.03 112.08C94.08 112.17 94.14 112.26 94.22 112.34C94.09 112.47 93.96 112.59 93.84 112.69C93.72 112.79 93.59 112.91 93.46 113.04C93.36 113.17 93.31 113.28 93.31 113.38C93.31 113.46 93.31 113.53 93.31 113.59C93.31 113.65 93.25 113.68 93.14 113.7C93.16 113.73 93.18 113.77 93.2 113.81C93.22 113.85 93.22 113.88 93.19 113.9C93.11 114 93.05 114.11 93.03 114.23C93.01 114.35 92.99 114.47 92.99 114.6C92.99 114.73 92.99 114.84 92.98 114.95C92.98 115.06 92.93 115.18 92.87 115.29C92.79 115.32 92.69 115.34 92.56 115.34C92.44 115.34 92.36 115.43 92.33 115.61C92.43 115.71 92.52 115.73 92.6 115.66C92.68 115.6 92.78 115.57 92.89 115.59C92.82 116.13 92.77 116.67 92.73 117.23C92.71 117.36 92.72 117.48 92.73 117.6C92.75 117.71 92.77 117.84 92.76 117.97C92.79 118.4 92.82 118.83 92.86 119.27C92.9 119.71 92.98 120.14 93.11 120.57C93.19 120.86 93.3 121.14 93.43 121.4C93.57 121.66 93.74 121.91 93.95 122.14C94.21 122.45 94.5 122.68 94.84 122.83C95.18 122.98 95.51 123.05 95.84 123.03C96.17 123.01 96.51 122.93 96.83 122.77C97.15 122.61 97.45 122.37 97.69 122.04C98.17 121.46 98.46 120.76 98.56 119.94C98.59 119.81 98.62 119.68 98.62 119.54C98.62 119.4 98.64 119.25 98.66 119.09L101.3 119.11C101.33 119.5 101.33 119.88 101.3 120.25C101.27 120.62 101.22 120.98 101.13 121.34C100.99 122.01 100.78 122.63 100.48 123.19C100.18 123.76 99.79 124.28 99.29 124.75C98.73 125.27 98.12 125.62 97.46 125.81C96.8 126 96.09 126.07 95.34 126.01C94.49 125.92 93.76 125.68 93.13 125.28C92.51 124.88 91.96 124.35 91.49 123.68C91.07 123.09 90.75 122.46 90.53 121.8C90.31 121.14 90.15 120.45 90.06 119.73C90.01 119.39 89.98 119.04 89.97 118.69C89.96 118.34 89.93 117.99 89.9 117.65C89.9 117.57 89.91 117.48 89.94 117.39C89.97 117.3 89.99 117.22 90.03 117.13C90.01 117.05 89.99 116.97 89.96 116.91C89.93 116.84 89.92 116.77 89.94 116.69C89.96 116.56 89.96 116.43 89.94 116.29C89.93 116.15 89.97 116.03 90.09 115.91C90.01 115.8 89.98 115.68 90.01 115.57C90.03 115.46 90.06 115.33 90.07 115.2C90.1 115.09 90.13 114.98 90.16 114.88C90.19 114.78 90.21 114.68 90.25 114.56C90.27 114.48 90.27 114.41 90.25 114.34C90.23 114.28 90.25 114.2 90.28 114.12C90.42 113.44 90.62 112.78 90.91 112.15C91.19 111.52 91.57 110.94 92.05 110.41C92.43 109.97 92.85 109.62 93.32 109.34C93.79 109.07 94.27 108.87 94.77 108.75C95.27 108.63 95.77 108.58 96.29 108.6C96.8 108.62 97.3 108.71 97.79 108.88C98.41 109.1 98.95 109.41 99.41 109.81C99.87 110.21 100.24 110.73 100.51 111.35C100.83 112.04 101.05 112.74 101.16 113.46C101.27 114.18 101.31 114.93 101.29 115.71L101.3 115.72ZM90.22 115.39C90.35 115.46 90.43 115.49 90.46 115.49C90.48 115.49 90.49 115.48 90.5 115.45C90.5 115.43 90.53 115.4 90.56 115.36C90.5 115.29 90.44 115.25 90.39 115.24C90.41 115.24 90.35 115.29 90.22 115.39ZM90.49 118.09C90.67 118.06 90.78 118.03 90.81 117.99C90.84 117.96 90.88 117.87 90.93 117.72C90.8 117.7 90.71 117.72 90.65 117.79C90.59 117.85 90.54 117.95 90.49 118.08V118.09ZM91.61 115.94C91.74 115.97 91.85 115.97 91.93 115.94C92.01 115.91 92.08 115.83 92.13 115.7C92.06 115.67 92 115.63 91.95 115.59C91.89 115.55 91.82 115.5 91.74 115.45C91.71 115.55 91.69 115.63 91.68 115.71C91.68 115.78 91.65 115.86 91.62 115.94H91.61ZM92.36 117.14C92.36 117.14 92.28 117.08 92.25 117.05C92.23 117.03 92.2 117.01 92.16 117.01C92.13 117.01 92.1 117.03 92.09 117.06C92.07 117.09 92.06 117.13 92.04 117.16C92.04 117.22 92.07 117.26 92.14 117.26C92.17 117.26 92.25 117.22 92.36 117.14ZM92.36 119.57C92.29 119.65 92.24 119.71 92.21 119.74C92.18 119.77 92.14 119.8 92.11 119.84C92.16 119.87 92.21 119.91 92.26 119.95C92.31 119.99 92.36 120.03 92.41 120.06C92.43 120.08 92.45 120.06 92.5 120.01C92.54 119.96 92.56 119.92 92.56 119.89C92.54 119.86 92.48 119.75 92.37 119.57H92.36ZM92.48 113.92C92.41 114 92.36 114.06 92.32 114.09C92.28 114.12 92.25 114.16 92.23 114.21C92.21 114.29 92.23 114.37 92.25 114.43C92.28 114.5 92.35 114.54 92.44 114.55C92.47 114.55 92.51 114.52 92.56 114.47C92.61 114.41 92.63 114.37 92.63 114.34C92.65 114.28 92.63 114.21 92.58 114.14C92.53 114.07 92.49 114 92.46 113.92H92.48ZM93.36 111.18C93.38 111.05 93.36 110.96 93.31 110.91C93.26 110.86 93.15 110.85 92.97 110.88C93.05 110.93 93.12 110.98 93.18 111.03C93.24 111.08 93.3 111.13 93.36 111.18ZM97.5 110.87C97.5 110.87 97.44 110.8 97.4 110.76C97.37 110.72 97.34 110.71 97.33 110.72C97.25 110.75 97.19 110.8 97.16 110.87C97.16 110.9 97.18 110.94 97.21 110.97C97.24 111 97.27 111.04 97.31 111.07L97.51 110.88L97.5 110.87ZM98.82 119.89C99.19 120.11 99.49 120.24 99.71 120.29C99.93 120.34 100.12 120.33 100.29 120.25C100.06 120.07 99.83 119.96 99.58 119.91C99.34 119.87 99.08 119.86 98.82 119.89ZM99.09 110.2C99.01 110.28 98.94 110.35 98.88 110.42C98.82 110.48 98.82 110.57 98.87 110.69C98.97 110.87 99.11 110.92 99.31 110.84C99.36 110.82 99.41 110.79 99.46 110.74C99.51 110.69 99.53 110.64 99.53 110.59C99.55 110.46 99.5 110.37 99.4 110.33C99.3 110.29 99.19 110.24 99.1 110.19L99.09 110.2ZM99.67 114.41C99.6 114.38 99.55 114.34 99.51 114.31C99.47 114.28 99.43 114.26 99.4 114.26C99.37 114.26 99.33 114.27 99.3 114.3C99.27 114.32 99.26 114.35 99.28 114.39C99.28 114.42 99.29 114.46 99.32 114.49C99.34 114.52 99.37 114.54 99.4 114.54C99.43 114.54 99.47 114.53 99.51 114.5C99.55 114.48 99.6 114.45 99.67 114.42V114.41Z" fill="#33FF33"/>
<path d="M102.7 118.1C102.7 118.1 102.64 118.12 102.61 118.12C102.59 118.12 102.55 118.12 102.5 118.14V117.31L105.27 117.33C105.3 117.64 105.32 117.94 105.32 118.24C105.32 118.53 105.36 118.82 105.42 119.1C105.51 119.7 105.67 120.32 105.9 120.94C105.98 121.2 106.1 121.44 106.26 121.65C106.42 121.86 106.59 122.07 106.77 122.27C107.09 122.6 107.45 122.82 107.83 122.94C108.21 123.06 108.62 123.13 109.04 123.17C109.17 123.19 109.31 123.16 109.44 123.09C109.58 123.02 109.72 122.96 109.87 122.91C110.02 122.89 110.19 122.87 110.39 122.84C110.42 122.81 110.45 122.75 110.46 122.68C110.48 122.61 110.51 122.55 110.56 122.52C111.3 121.87 111.78 121.05 112 120.06C112.44 118.22 112.44 116.4 112.02 114.6C111.85 113.88 111.52 113.26 111.06 112.73C110.57 112.17 109.93 111.85 109.13 111.76C109.06 111.74 108.96 111.73 108.81 111.73L108.83 108.72C109.06 108.69 109.28 108.69 109.49 108.72C109.7 108.75 109.91 108.8 110.13 108.85C110.88 109 111.54 109.28 112.11 109.68C112.68 110.08 113.17 110.6 113.59 111.22C113.94 111.71 114.23 112.24 114.43 112.79C114.64 113.35 114.8 113.93 114.91 114.53C115.11 115.67 115.2 116.81 115.17 117.93C115.14 119.06 114.96 120.18 114.64 121.3C114.35 122.36 113.86 123.3 113.15 124.13C112.54 124.86 111.84 125.38 111.06 125.69C110.27 126 109.42 126.13 108.49 126.07C107.36 126.03 106.4 125.74 105.61 125.22C104.81 124.69 104.15 123.94 103.62 122.95C103.41 122.57 103.24 122.18 103.1 121.78C102.96 121.38 102.87 120.97 102.8 120.54C102.77 120.38 102.74 120.22 102.71 120.07C102.68 119.92 102.65 119.77 102.62 119.6C102.6 119.47 102.59 119.34 102.59 119.22C102.59 119.1 102.56 118.97 102.53 118.84C102.51 118.71 102.51 118.58 102.51 118.44C102.51 118.3 102.58 118.18 102.71 118.06L102.7 118.1ZM104.54 120.54C104.39 120.51 104.3 120.5 104.27 120.51C104.24 120.53 104.2 120.61 104.15 120.75C104.28 120.73 104.36 120.72 104.4 120.7C104.44 120.68 104.48 120.63 104.55 120.53L104.54 120.54ZM104.32 121.62C104.4 121.57 104.48 121.53 104.57 121.49C104.65 121.45 104.73 121.41 104.82 121.36C104.54 121.28 104.38 121.36 104.33 121.63L104.32 121.62ZM104.64 123.72C104.64 123.72 104.69 123.69 104.7 123.68C104.71 123.67 104.73 123.66 104.76 123.64C104.81 123.59 104.83 123.55 104.81 123.52C104.79 123.49 104.75 123.44 104.69 123.37C104.66 123.4 104.63 123.43 104.6 123.44C104.58 123.46 104.56 123.48 104.56 123.51C104.56 123.54 104.56 123.58 104.58 123.61C104.6 123.64 104.61 123.68 104.63 123.71L104.64 123.72ZM106.18 123.86C106.08 123.63 105.98 123.57 105.86 123.66C105.84 123.68 105.84 123.71 105.84 123.76C105.87 123.78 105.92 123.79 105.97 123.8C106.03 123.8 106.1 123.83 106.18 123.86ZM112.79 120.92C112.95 121.05 113.1 121.06 113.23 120.95C113.25 120.95 113.25 120.93 113.25 120.89C113.25 120.85 113.25 120.82 113.23 120.8C113.03 120.68 112.89 120.72 112.79 120.92Z" fill="#33FF33"/>
<path d="M115.94 109.22L118.66 109.24C118.69 109.37 118.71 109.47 118.71 109.53L118.67 114.13C118.67 114.13 118.67 114.21 118.68 114.26C118.68 114.32 118.68 114.35 118.64 114.37C118.44 114.48 118.37 114.59 118.42 114.69C118.47 114.79 118.54 114.9 118.64 115.01C118.69 115.08 118.68 115.17 118.63 115.28C118.57 115.39 118.49 115.48 118.37 115.55C118.34 115.58 118.3 115.6 118.25 115.61C118.2 115.61 118.16 115.63 118.13 115.65C117.95 115.71 117.84 115.77 117.79 115.82C117.74 115.87 117.73 115.98 117.76 116.16C117.77 116.39 117.72 116.56 117.61 116.67C117.46 116.82 117.41 116.98 117.46 117.16C117.51 117.29 117.54 117.43 117.54 117.59C117.54 117.75 117.63 117.86 117.79 117.95C117.84 117.98 117.88 118.02 117.92 118.06C117.96 118.1 118 118.15 118.05 118.2H118.64L118.6 122.98L125.06 123.03L125.04 125.97L115.84 125.9C115.84 125.82 115.84 125.74 115.83 125.67C115.83 125.6 115.82 125.52 115.82 125.44C115.82 124.51 115.84 123.58 115.85 122.65C115.87 121.72 115.88 120.79 115.88 119.86C115.88 119.75 115.88 119.64 115.88 119.54C115.88 119.44 115.87 119.34 115.87 119.25C115.87 119.22 115.88 119.18 115.91 119.13C115.93 119.08 115.96 119.03 116 118.98C116 118.96 115.98 118.94 115.95 118.91C115.92 118.88 115.89 118.84 115.88 118.81C115.86 118.76 115.86 118.71 115.87 118.66C115.87 118.61 115.88 118.57 115.88 118.54L115.95 109.66V109.24L115.94 109.22ZM116.04 118.57C116.19 118.6 116.28 118.61 116.32 118.6C116.36 118.58 116.43 118.51 116.53 118.38C116.46 118.35 116.41 118.31 116.36 118.27C116.31 118.23 116.25 118.18 116.17 118.13C116.14 118.23 116.11 118.31 116.09 118.37C116.07 118.43 116.06 118.5 116.04 118.56V118.57ZM116.54 119.65C116.47 119.75 116.44 119.81 116.44 119.84C116.44 119.87 116.46 119.89 116.49 119.9C116.52 119.9 116.55 119.92 116.59 119.94C116.61 119.91 116.62 119.88 116.64 119.85C116.66 119.83 116.66 119.8 116.66 119.76C116.68 119.74 116.64 119.7 116.54 119.64V119.65ZM117.08 122.57C117 122.52 116.93 122.47 116.89 122.43C116.84 122.39 116.8 122.37 116.77 122.37C116.74 122.35 116.7 122.37 116.66 122.41C116.62 122.45 116.58 122.49 116.55 122.52C116.58 122.55 116.62 122.59 116.66 122.64C116.7 122.69 116.74 122.72 116.77 122.74C116.8 122.76 116.84 122.74 116.89 122.7C116.94 122.66 117.01 122.62 117.09 122.57H117.08ZM116.6 115.1L116.55 115.2C116.55 115.2 116.62 115.23 116.66 115.25C116.7 115.27 116.74 115.28 116.77 115.3L116.82 115.25L116.6 115.1ZM117.22 118.04C117.04 118.01 116.93 118 116.9 118.03C116.87 118.05 116.82 118.15 116.75 118.31C116.93 118.34 117.04 118.35 117.07 118.32C117.1 118.3 117.15 118.2 117.22 118.04ZM117.45 119.98C117.45 119.98 117.36 119.92 117.33 119.89C117.3 119.87 117.27 119.86 117.23 119.88C117.21 119.88 117.16 119.92 117.08 120C117.11 120.03 117.14 120.06 117.16 120.09C117.18 120.11 117.21 120.13 117.25 120.13C117.28 120.13 117.31 120.11 117.34 120.08C117.36 120.05 117.4 120.02 117.45 119.98ZM117.65 118.95C117.44 118.8 117.32 118.83 117.28 119.02C117.28 119.04 117.28 119.05 117.3 119.07L117.35 119.12C117.35 119.12 117.45 119.06 117.5 119.04C117.55 119.02 117.6 118.99 117.65 118.96V118.95ZM117.84 113.77L117.77 113.62C117.77 113.62 117.73 113.65 117.71 113.66C117.69 113.66 117.67 113.68 117.67 113.7C117.65 113.72 117.67 113.77 117.72 113.85C117.75 113.83 117.77 113.82 117.78 113.81C117.78 113.81 117.81 113.79 117.84 113.77ZM118.45 109.88C118.45 109.88 118.38 109.82 118.35 109.79C118.32 109.77 118.29 109.74 118.25 109.73L118.2 109.78C118.2 109.78 118.18 109.81 118.18 109.83C118.18 109.85 118.18 109.85 118.16 109.85C118.18 109.93 118.22 109.98 118.31 110C118.33 110 118.34 110 118.36 109.98L118.46 109.88H118.45ZM119.04 123.25C119.04 123.25 118.95 123.18 118.93 123.15C118.91 123.12 118.88 123.1 118.85 123.1C118.83 123.08 118.81 123.09 118.78 123.11C118.75 123.13 118.73 123.15 118.73 123.17C118.76 123.27 118.79 123.33 118.83 123.34C118.86 123.36 118.89 123.35 118.93 123.33C118.96 123.31 119 123.28 119.05 123.25H119.04ZM121.26 123.87C121.23 123.67 121.11 123.58 120.9 123.57C120.7 123.6 120.62 123.71 120.65 123.89C120.68 124.09 120.79 124.17 120.97 124.14C121.17 124.11 121.26 124.02 121.27 123.87H121.26Z" fill="#33FF33"/>
<path d="M125.95 118.28C125.95 118.28 125.89 118.3 125.86 118.3C125.83 118.3 125.8 118.3 125.75 118.32V117.49L128.52 117.51C128.55 117.82 128.57 118.12 128.57 118.42C128.57 118.71 128.61 119 128.67 119.28C128.76 119.88 128.92 120.5 129.15 121.12C129.23 121.38 129.35 121.62 129.51 121.83C129.67 122.04 129.84 122.25 130.02 122.45C130.34 122.78 130.7 123 131.08 123.12C131.46 123.24 131.87 123.31 132.29 123.35C132.42 123.37 132.56 123.34 132.69 123.27C132.83 123.2 132.97 123.14 133.12 123.09C133.27 123.07 133.44 123.05 133.64 123.02C133.67 122.99 133.7 122.94 133.71 122.86C133.73 122.79 133.76 122.73 133.81 122.7C134.55 122.05 135.03 121.23 135.25 120.24C135.69 118.4 135.69 116.58 135.27 114.78C135.1 114.06 134.77 113.44 134.31 112.91C133.82 112.35 133.18 112.03 132.38 111.94C132.31 111.92 132.21 111.91 132.06 111.91L132.08 108.9C132.31 108.87 132.53 108.87 132.74 108.9C132.95 108.93 133.16 108.98 133.38 109.03C134.13 109.18 134.79 109.46 135.36 109.86C135.93 110.26 136.42 110.78 136.84 111.4C137.19 111.89 137.48 112.42 137.68 112.97C137.89 113.53 138.05 114.11 138.16 114.71C138.36 115.85 138.45 116.99 138.42 118.11C138.39 119.23 138.21 120.36 137.89 121.48C137.6 122.54 137.11 123.48 136.4 124.31C135.79 125.04 135.09 125.56 134.31 125.87C133.53 126.18 132.67 126.31 131.74 126.25C130.61 126.21 129.65 125.92 128.86 125.4C128.06 124.87 127.4 124.12 126.87 123.13C126.66 122.75 126.49 122.36 126.35 121.96C126.21 121.56 126.12 121.15 126.05 120.72C126.02 120.56 125.99 120.4 125.96 120.25C125.93 120.1 125.9 119.95 125.87 119.78C125.85 119.65 125.84 119.52 125.84 119.4C125.84 119.28 125.81 119.15 125.78 119.02C125.76 118.89 125.76 118.75 125.76 118.62C125.76 118.48 125.83 118.36 125.96 118.24L125.95 118.28ZM127.79 120.72C127.64 120.69 127.55 120.68 127.52 120.69C127.49 120.71 127.45 120.79 127.4 120.93C127.53 120.91 127.61 120.9 127.65 120.88C127.68 120.86 127.73 120.81 127.8 120.71L127.79 120.72ZM127.56 121.79C127.64 121.74 127.72 121.7 127.81 121.66C127.9 121.62 127.97 121.58 128.06 121.53C127.78 121.45 127.62 121.53 127.57 121.8L127.56 121.79ZM127.89 123.9C127.89 123.9 127.94 123.87 127.95 123.86C127.96 123.85 127.98 123.84 128.01 123.82C128.06 123.77 128.08 123.73 128.06 123.7C128.04 123.67 128 123.62 127.94 123.55C127.91 123.58 127.88 123.61 127.85 123.62C127.83 123.64 127.81 123.66 127.81 123.69C127.81 123.72 127.81 123.76 127.83 123.79C127.85 123.82 127.86 123.86 127.88 123.89L127.89 123.9ZM129.43 124.03C129.33 123.8 129.23 123.74 129.11 123.83C129.09 123.85 129.09 123.88 129.09 123.93C129.12 123.95 129.17 123.96 129.22 123.97C129.28 123.97 129.35 124 129.43 124.03ZM136.04 121.1C136.2 121.23 136.35 121.24 136.48 121.13C136.5 121.13 136.5 121.11 136.5 121.07C136.5 121.03 136.5 121 136.48 120.98C136.28 120.86 136.14 120.9 136.04 121.1Z" fill="#33FF33"/>
<path d="M154.49 120.31C154.44 120.05 154.49 119.8 154.64 119.58C154.67 119.53 154.69 119.47 154.7 119.4C154.7 119.33 154.72 119.25 154.74 119.17C154.61 119.15 154.5 119.14 154.4 119.14C154.3 119.14 154.2 119.14 154.08 119.11C154.15 118.93 154.21 118.75 154.26 118.57C154.31 118.39 154.37 118.21 154.44 118.03C154.34 118.01 154.26 118.03 154.21 118.09C154.15 118.15 154.1 118.2 154.05 118.26C154 118.32 153.94 118.37 153.88 118.42C153.81 118.47 153.72 118.48 153.61 118.44C153.39 117.66 153.17 116.87 152.94 116.09C152.72 115.3 152.49 114.5 152.25 113.66C152.22 113.74 152.19 113.81 152.16 113.87C152.13 113.93 152.11 113.99 152.1 114.05C151.9 114.73 151.7 115.41 151.5 116.09C151.3 116.77 151.1 117.45 150.9 118.13C150.83 118.37 150.75 118.53 150.65 118.59C150.55 118.65 150.37 118.69 150.11 118.68C150.04 118.66 149.99 118.68 149.95 118.7C149.91 118.73 149.8 118.85 149.62 119.04C149.73 119.02 149.84 119.01 149.95 119.01C150.06 119.01 150.16 118.99 150.26 118.98C150.47 119.23 150.53 119.53 150.42 119.89C150.12 120.87 149.83 121.85 149.54 122.83C149.26 123.82 148.97 124.8 148.69 125.77C148.67 125.84 148.66 125.89 148.64 125.94C148.62 125.99 148.6 126.05 148.57 126.14L145.76 126.12C145.76 125.91 145.78 125.76 145.81 125.68C146.08 124.8 146.35 123.93 146.61 123.08C146.87 122.23 147.15 121.36 147.41 120.48C147.44 120.4 147.48 120.33 147.53 120.26C147.58 120.2 147.64 120.12 147.7 120.04L147.65 119.94C147.57 119.76 147.62 119.65 147.8 119.62C147.9 119.62 147.99 119.62 148.07 119.6C148.15 119.58 148.21 119.51 148.24 119.38C148.27 119.27 148.26 119.18 148.19 119.11C148.13 119.04 148.05 118.97 147.97 118.89C147.99 118.89 147.97 118.86 147.9 118.79C148.02 118.61 148.08 118.41 148.1 118.19C148.12 117.97 148.22 117.77 148.4 117.59L148.42 117.57C148.34 117.47 148.32 117.39 148.36 117.31C148.4 117.24 148.47 117.19 148.57 117.15C148.7 117.1 148.84 117.06 148.99 117.02C149.14 116.98 149.28 117 149.43 117.08C149.54 117.15 149.66 117.19 149.77 117.2C150.08 117.3 150.35 117.24 150.58 117.01C150.68 116.91 150.77 116.82 150.86 116.72C150.95 116.62 151.05 116.53 151.14 116.43C151.12 116.43 151.12 116.43 151.12 116.41L151.1 116.39C150.94 116.39 150.77 116.39 150.61 116.39C150.45 116.39 150.28 116.39 150.12 116.41C149.97 116.42 149.82 116.49 149.65 116.6C149.37 116.74 149.09 116.79 148.79 116.74C148.76 116.74 148.72 116.73 148.69 116.7C148.66 116.68 148.61 116.65 148.54 116.61C148.72 116.58 148.89 116.55 149.04 116.52C149.19 116.49 149.34 116.46 149.47 116.43C149.52 116.35 149.56 116.28 149.59 116.24C149.62 116.19 149.66 116.13 149.69 116.04C149.72 115.99 149.75 115.93 149.76 115.86C149.78 115.79 149.76 115.74 149.74 115.73C149.64 115.65 149.52 115.62 149.37 115.65C149.29 115.67 149.21 115.69 149.12 115.73C149.04 115.77 148.94 115.81 148.83 115.86C148.98 115.29 149.14 114.74 149.31 114.2C149.48 113.66 149.64 113.13 149.81 112.59C149.98 112.05 150.14 111.52 150.31 110.98C150.48 110.44 150.65 109.9 150.84 109.34L153.7 109.36C153.73 109.44 153.76 109.52 153.78 109.61C153.8 109.69 153.83 109.77 153.86 109.86C154.13 110.74 154.39 111.63 154.65 112.51C154.9 113.39 155.17 114.28 155.44 115.18C155.47 115.29 155.5 115.42 155.51 115.55C155.53 115.68 155.54 115.82 155.56 115.97C155.59 116.04 155.64 116.11 155.71 116.19C155.77 116.27 155.82 116.36 155.85 116.46C156.31 118.03 156.78 119.59 157.26 121.13C157.74 122.68 158.21 124.24 158.67 125.83C158.69 125.88 158.7 125.93 158.71 125.99C158.71 126.05 158.74 126.11 158.77 126.17C158.67 126.19 158.5 126.2 158.24 126.21C157.99 126.22 157.71 126.23 157.41 126.23C157.11 126.23 156.81 126.23 156.52 126.23C156.23 126.23 155.99 126.22 155.81 126.2C155.54 125.28 155.28 124.37 155.02 123.47C154.77 122.56 154.51 121.67 154.26 120.78C154.28 120.67 154.34 120.59 154.45 120.56C154.56 120.53 154.58 120.45 154.51 120.32H154.49V120.31ZM148.6 122.44C148.6 122.31 148.55 122.17 148.44 122.02C148.33 121.87 148.23 121.8 148.11 121.8C147.98 121.78 147.87 121.82 147.77 121.91C147.67 122 147.61 122.1 147.6 122.21C147.58 122.34 147.63 122.48 147.76 122.63C147.89 122.78 148.01 122.85 148.14 122.85C148.27 122.85 148.38 122.81 148.47 122.73C148.56 122.65 148.61 122.55 148.61 122.44H148.6ZM149.48 119.49C149.48 119.49 149.51 119.44 149.52 119.43C149.52 119.43 149.54 119.4 149.56 119.37C149.53 119.32 149.5 119.28 149.46 119.23C149.43 119.19 149.37 119.18 149.29 119.22C149.27 119.22 149.25 119.26 149.22 119.34C149.35 119.41 149.44 119.46 149.49 119.49H149.48ZM150.29 119.27C150.29 119.27 150.23 119.24 150.2 119.22C150.18 119.2 150.15 119.2 150.11 119.2L150.04 119.27C150.04 119.27 150.13 119.35 150.16 119.37C150.14 119.37 150.18 119.34 150.28 119.27H150.29ZM151.26 111.52C151.05 111.6 150.92 111.68 150.88 111.76C150.84 111.84 150.84 111.97 150.88 112.15C151.09 112.04 151.21 111.95 151.24 111.9C151.26 111.84 151.27 111.72 151.26 111.52ZM152.94 112.12C152.42 112.25 152.1 112.51 152 112.92C152.2 112.84 152.38 112.74 152.55 112.63C152.72 112.52 152.85 112.35 152.93 112.12H152.94ZM153.2 109.73C153.2 109.73 153.27 109.62 153.3 109.56C153.25 109.51 153.22 109.49 153.2 109.49C153.18 109.51 153.14 109.56 153.08 109.66C153.1 109.68 153.11 109.68 153.13 109.68C153.15 109.7 153.16 109.7 153.17 109.7C153.17 109.7 153.19 109.7 153.21 109.72L153.2 109.73ZM153.71 110.73L153.86 110.58C153.84 110.52 153.8 110.47 153.71 110.43C153.69 110.43 153.68 110.43 153.66 110.45C153.63 110.48 153.62 110.5 153.64 110.5C153.64 110.55 153.66 110.62 153.71 110.72V110.73ZM153.73 114.68C153.73 114.68 153.76 114.71 153.77 114.73C153.77 114.75 153.79 114.76 153.81 114.78C153.88 114.76 153.93 114.74 153.97 114.72C154.01 114.7 154.03 114.64 154.03 114.56L154.01 114.54C154.01 114.54 153.98 114.54 153.96 114.52C153.93 114.55 153.89 114.58 153.85 114.61C153.81 114.63 153.77 114.66 153.74 114.69L153.73 114.68ZM154.52 120.31H154.15C154.12 120.14 154.08 119.98 154.03 119.83C153.98 119.67 153.94 119.51 153.91 119.33C153.97 119.36 154.04 119.39 154.09 119.42C154.15 119.44 154.21 119.47 154.27 119.51C154.3 119.64 154.3 119.78 154.27 119.94C154.24 120.09 154.31 120.22 154.49 120.32H154.51L154.52 120.31ZM154.12 115.24C154.12 115.24 154.14 115.3 154.14 115.31C154.14 115.32 154.14 115.34 154.16 115.36C154.24 115.38 154.32 115.37 154.38 115.35C154.45 115.33 154.5 115.24 154.55 115.09C154.45 115.12 154.37 115.15 154.3 115.16C154.23 115.17 154.17 115.2 154.1 115.23L154.12 115.24Z" fill="#33FF33"/>
<path d="M159.49 109.56L162.21 109.58C162.24 109.71 162.26 109.81 162.26 109.87L162.22 114.47C162.22 114.47 162.22 114.55 162.23 114.6C162.23 114.66 162.23 114.69 162.19 114.71C161.99 114.82 161.92 114.93 161.97 115.03C162.02 115.13 162.09 115.24 162.19 115.35C162.24 115.42 162.23 115.51 162.18 115.62C162.12 115.73 162.04 115.82 161.92 115.89C161.89 115.92 161.85 115.94 161.8 115.95C161.75 115.95 161.71 115.97 161.68 115.99C161.5 116.05 161.39 116.11 161.34 116.16C161.29 116.21 161.28 116.32 161.31 116.5C161.32 116.73 161.27 116.9 161.16 117.01C161.01 117.16 160.96 117.32 161.01 117.5C161.06 117.63 161.09 117.77 161.09 117.93C161.09 118.09 161.18 118.2 161.34 118.29C161.39 118.32 161.43 118.36 161.47 118.4C161.51 118.44 161.55 118.49 161.6 118.54H162.19L162.15 123.32L168.61 123.37L168.59 126.31L159.39 126.24C159.39 126.16 159.39 126.08 159.38 126.01C159.37 125.94 159.37 125.86 159.37 125.78C159.37 124.85 159.39 123.92 159.4 122.99C159.42 122.06 159.43 121.13 159.43 120.2C159.43 120.09 159.43 119.98 159.43 119.88C159.43 119.78 159.42 119.68 159.42 119.59C159.42 119.56 159.43 119.52 159.46 119.47C159.48 119.42 159.51 119.37 159.55 119.32C159.55 119.3 159.53 119.28 159.5 119.25C159.47 119.22 159.44 119.18 159.43 119.15C159.41 119.1 159.41 119.05 159.42 119C159.42 118.95 159.43 118.91 159.43 118.88L159.5 110V109.58L159.49 109.56ZM159.59 118.9C159.74 118.93 159.83 118.94 159.87 118.93C159.91 118.91 159.98 118.84 160.08 118.71C160.01 118.68 159.96 118.64 159.91 118.6C159.86 118.56 159.8 118.51 159.72 118.46C159.69 118.56 159.66 118.64 159.64 118.7C159.62 118.76 159.61 118.83 159.59 118.89V118.9ZM160.1 119.99C160.03 120.09 160 120.15 160 120.18C160 120.21 160.02 120.23 160.05 120.24C160.08 120.24 160.11 120.26 160.15 120.28C160.17 120.25 160.18 120.22 160.2 120.19C160.22 120.17 160.22 120.14 160.22 120.1C160.24 120.08 160.2 120.04 160.1 119.98V119.99ZM160.64 122.9C160.56 122.85 160.49 122.8 160.45 122.76C160.4 122.72 160.36 122.7 160.33 122.7C160.3 122.68 160.26 122.7 160.22 122.74C160.18 122.78 160.14 122.82 160.11 122.85C160.14 122.88 160.18 122.92 160.22 122.97C160.26 123.02 160.3 123.05 160.33 123.07C160.36 123.09 160.4 123.07 160.45 123.03C160.5 122.99 160.57 122.95 160.65 122.9H160.64ZM160.16 115.43L160.11 115.53C160.11 115.53 160.18 115.56 160.22 115.58C160.26 115.6 160.3 115.61 160.33 115.63L160.38 115.58L160.16 115.43ZM160.77 118.38C160.59 118.35 160.48 118.34 160.45 118.37C160.42 118.39 160.37 118.49 160.3 118.65C160.48 118.68 160.59 118.69 160.62 118.66C160.65 118.64 160.7 118.54 160.77 118.38ZM161 120.31C161 120.31 160.91 120.25 160.88 120.22C160.85 120.2 160.82 120.19 160.78 120.21C160.76 120.21 160.71 120.25 160.63 120.33C160.66 120.36 160.69 120.39 160.71 120.42C160.73 120.44 160.76 120.46 160.8 120.46C160.83 120.46 160.86 120.44 160.89 120.41C160.91 120.38 160.95 120.35 161 120.31ZM161.21 119.28C161 119.13 160.88 119.16 160.84 119.35C160.84 119.37 160.84 119.38 160.86 119.4L160.91 119.45C160.91 119.45 161.01 119.39 161.06 119.37C161.11 119.35 161.16 119.32 161.21 119.29V119.28ZM161.39 114.1L161.32 113.95C161.32 113.95 161.28 113.98 161.26 113.99C161.24 113.99 161.22 114.01 161.22 114.03C161.2 114.05 161.22 114.1 161.27 114.18C161.3 114.16 161.32 114.15 161.33 114.14C161.33 114.14 161.36 114.12 161.39 114.1ZM162.01 110.21C162.01 110.21 161.94 110.15 161.91 110.12C161.88 110.1 161.85 110.07 161.81 110.06L161.76 110.11C161.76 110.11 161.74 110.14 161.74 110.16C161.74 110.18 161.74 110.18 161.72 110.18C161.74 110.26 161.78 110.31 161.87 110.33C161.89 110.33 161.9 110.33 161.92 110.31L162.02 110.21H162.01ZM162.59 123.58C162.59 123.58 162.5 123.51 162.48 123.48C162.46 123.45 162.43 123.43 162.4 123.43C162.38 123.41 162.36 123.42 162.33 123.44C162.3 123.46 162.28 123.48 162.28 123.5C162.31 123.6 162.34 123.66 162.38 123.67C162.41 123.69 162.44 123.68 162.48 123.66C162.51 123.64 162.55 123.61 162.6 123.58H162.59ZM164.82 124.21C164.79 124.01 164.67 123.92 164.46 123.91C164.26 123.94 164.18 124.05 164.21 124.23C164.24 124.43 164.35 124.51 164.53 124.48C164.73 124.45 164.82 124.36 164.83 124.21H164.82Z" fill="#33FF33"/>
<path d="M169.68 109.49L172.3 109.51L172.2 126.32L169.56 126.3L169.69 109.49H169.68ZM170.13 120.26C170.29 120.39 170.44 120.4 170.57 120.29C170.62 120.24 170.62 120.19 170.57 120.14C170.41 119.99 170.26 120.03 170.13 120.26ZM171.46 125.5C171.49 125.58 171.52 125.69 171.56 125.82C171.59 125.8 171.62 125.8 171.65 125.8C171.67 125.8 171.69 125.78 171.71 125.75C171.76 125.6 171.68 125.52 171.47 125.5H171.46Z" fill="#33FF33"/>
<path d="M178.38 126.41C178.22 126.38 178.07 126.35 177.95 126.32C177.83 126.29 177.71 126.26 177.6 126.21C177.37 126.11 177.14 126.06 176.92 126.05C176.69 126.04 176.46 126.14 176.23 126.35C176.2 126.3 176.17 126.26 176.13 126.21C176.1 126.17 176.07 126.13 176.03 126.1C175.9 125.92 175.78 125.82 175.68 125.79C175.57 125.77 175.43 125.81 175.25 125.92C175.14 125.98 175.03 126.03 174.93 126.06C174.83 126.09 174.72 126.09 174.59 126.06C174.54 126.06 174.47 126.09 174.37 126.16C174.26 126.24 174.15 126.29 174.05 126.32C173.95 126.34 173.84 126.34 173.71 126.31C173.68 126.18 173.66 126.02 173.65 125.84C173.65 125.66 173.65 125.48 173.65 125.3C173.65 125.12 173.67 124.95 173.68 124.79C173.68 124.63 173.71 124.5 173.74 124.42C173.82 124.45 173.9 124.48 173.97 124.5C174.04 124.52 174.12 124.54 174.2 124.57C174.59 124.72 174.92 124.64 175.18 124.33C175.28 124.2 175.36 124.1 175.43 124.04C175.48 124.01 175.57 123.96 175.7 123.89L175.65 123.79C175.47 123.79 175.3 123.79 175.12 123.79C174.95 123.79 174.77 123.79 174.59 123.81C174.51 123.83 174.44 123.85 174.38 123.88C174.32 123.91 174.25 123.94 174.17 123.98C174.1 124.01 174.04 124.04 173.99 124.06C173.94 124.08 173.86 124.1 173.78 124.12C173.76 124.12 173.7 124.06 173.59 123.95C173.87 123.89 174.07 123.74 174.21 123.51C174.24 123.46 174.31 123.43 174.41 123.41C174.51 123.39 174.6 123.39 174.68 123.39L179.82 123.43H180.51C180.57 123.43 180.64 123.43 180.71 123.43C180.77 123.43 180.82 123.48 180.83 123.61C180.85 123.63 180.87 123.63 180.9 123.63H181C181.08 123.5 181.19 123.44 181.31 123.44C181.43 123.44 181.55 123.44 181.66 123.44H182.47L182.45 126.38L178.71 126.35C178.76 126.17 178.81 126.01 178.85 125.86C178.89 125.71 178.95 125.53 179.01 125.32C178.93 125.37 178.86 125.4 178.8 125.43C178.74 125.45 178.7 125.48 178.67 125.51C178.6 125.56 178.55 125.61 178.5 125.67C178.45 125.73 178.39 125.79 178.33 125.85C178.25 125.91 178.2 125.97 178.19 126.02C178.19 126.07 178.24 126.11 178.37 126.14V126.21C178.37 126.28 178.37 126.33 178.39 126.38L178.38 126.41ZM173.72 117.79V116.66L182.51 116.73L182.49 119.67L179.6 119.65L176.64 119.63C176.17 119.61 175.69 119.61 175.2 119.62C174.71 119.63 174.22 119.62 173.73 119.58C173.71 119.48 173.71 119.39 173.71 119.3C173.71 119.21 173.71 119.12 173.69 119.02C173.9 118.79 174.09 118.56 174.26 118.31C174.21 118.29 174.19 118.25 174.19 118.17C174.19 118.1 174.18 118.02 174.15 117.95C174.13 117.88 174.09 117.82 174.03 117.78C173.97 117.74 173.87 117.74 173.72 117.79ZM182.57 109.61L182.55 112.5L173.79 112.43L173.81 109.57L182.57 109.61ZM176.5 125.57H176.92C176.76 125.41 176.62 125.41 176.5 125.57ZM177.74 117.72C177.74 117.72 177.77 117.66 177.79 117.64C177.81 117.62 177.82 117.59 177.84 117.55C177.79 117.5 177.76 117.48 177.74 117.5C177.71 117.52 177.69 117.54 177.68 117.56C177.68 117.58 177.65 117.61 177.62 117.65L177.64 117.67C177.64 117.67 177.7 117.72 177.74 117.72ZM178.24 118.73C178.32 118.65 178.36 118.6 178.36 118.58C178.34 118.55 178.3 118.5 178.24 118.43C178.22 118.43 178.21 118.43 178.19 118.45L178.14 118.5C178.14 118.5 178.19 118.62 178.24 118.72V118.73ZM180.13 118.89C179.95 118.9 179.84 118.92 179.81 118.95C179.78 118.97 179.74 119.05 179.71 119.18C179.92 119.21 180.06 119.12 180.13 118.89Z" fill="#33FF33"/>
<path d="M189.93 123.12C189.83 122.99 189.77 122.89 189.74 122.82C189.35 121.99 188.97 121.17 188.58 120.36C188.2 119.56 187.81 118.74 187.42 117.9C187.28 117.59 187.13 117.28 186.99 116.97C186.85 116.66 186.7 116.35 186.56 116.04H186.44L186.42 118.05L186.4 120.08L186.38 122.09C186.3 122.12 186.23 122.16 186.17 122.2C186.11 122.24 186.04 122.28 185.96 122.31C186.02 122.36 186.08 122.41 186.14 122.46C186.2 122.51 186.27 122.58 186.37 122.66L186.35 124.98C186.28 124.96 186.23 124.95 186.18 124.95C186.13 124.95 186.08 124.95 186.03 124.92C185.95 125.13 185.99 125.29 186.15 125.39C186.38 125.52 186.43 125.69 186.32 125.91C186.3 125.94 186.3 125.98 186.29 126.03C186.28 126.08 186.29 126.14 186.29 126.2C186.29 126.27 186.31 126.34 186.34 126.42L183.8 126.4L183.93 109.64L186.57 109.61C187.4 111.41 188.13 112.98 188.75 114.3C189.37 115.63 189.89 116.74 190.3 117.64C190.78 118.69 191.2 119.58 191.55 120.32C191.57 120.32 191.58 120.32 191.6 120.31C191.62 120.31 191.63 120.3 191.65 120.3L191.73 109.65L194.28 109.67L194.19 121.78C193.96 121.84 193.82 121.92 193.77 122C193.72 122.08 193.69 122.24 193.67 122.49C193.72 122.46 193.76 122.44 193.81 122.43C193.85 122.43 193.89 122.4 193.92 122.37C193.95 122.35 194.04 122.29 194.19 122.18L194.16 126.49H192.62C192.62 126.49 192.62 126.45 192.61 126.44C192.6 126.43 192.6 126.42 192.6 126.4C192.6 126.22 192.61 126.09 192.63 126.01C192.55 126.01 192.47 126.01 192.39 125.98C192.31 125.96 192.23 125.98 192.15 126C192.02 126.05 191.9 126.1 191.79 126.17C191.68 126.23 191.56 126.31 191.43 126.39C191.3 126.16 191.18 125.92 191.08 125.68C190.98 125.43 190.86 125.2 190.73 124.97C190.76 124.92 190.8 124.88 190.84 124.84C190.88 124.8 190.92 124.75 190.95 124.68C190.87 124.66 190.8 124.65 190.75 124.64C190.7 124.64 190.64 124.62 190.55 124.6C190.45 124.37 190.35 124.13 190.25 123.88C190.15 123.63 190.04 123.37 189.93 123.11C189.98 123.11 190.03 123.11 190.09 123.12C190.15 123.12 190.19 123.12 190.22 123.08C190.35 123 190.44 122.82 190.48 122.56C190.52 122.29 190.5 122.1 190.42 121.98C190.31 121.83 190.2 121.83 190.1 121.98C190 122.13 189.94 122.28 189.93 122.44C189.91 122.55 189.91 122.66 189.92 122.77C189.92 122.88 189.93 122.99 189.92 123.12H189.93ZM190.94 119.31C190.88 119.28 190.82 119.24 190.78 119.21C190.74 119.18 190.7 119.16 190.67 119.16C190.64 119.16 190.6 119.18 190.57 119.23C190.54 119.28 190.52 119.32 190.52 119.35C190.54 119.38 190.56 119.42 190.6 119.45C190.64 119.48 190.68 119.5 190.71 119.5C190.74 119.5 190.77 119.48 190.81 119.44C190.84 119.4 190.88 119.36 190.93 119.31H190.94ZM191.74 123.19C191.99 123.01 192.07 122.86 191.99 122.73C191.94 122.68 191.88 122.67 191.79 122.7C191.64 122.78 191.63 122.94 191.74 123.19ZM191.85 121.26C191.96 121.28 192.06 121.26 192.13 121.21C192.2 121.16 192.26 121.11 192.31 121.04C192.36 120.98 192.41 120.91 192.46 120.85C192.51 120.79 192.57 120.75 192.63 120.73C192.6 120.65 192.58 120.58 192.57 120.53C192.56 120.48 192.54 120.43 192.51 120.38C192.48 120.33 192.44 120.27 192.4 120.21C192.36 120.14 192.32 120.11 192.29 120.11C192.24 120.11 192.18 120.13 192.12 120.17C192.05 120.21 192.01 120.25 191.97 120.28C191.74 120.57 191.7 120.9 191.84 121.26H191.85ZM192.21 122.48C192.24 122.4 192.28 122.33 192.31 122.28C192.34 122.23 192.37 122.19 192.38 122.16C192.38 122.13 192.36 122.1 192.33 122.09C192.3 122.07 192.27 122.05 192.23 122.02C192.2 122.05 192.17 122.09 192.14 122.13C192.12 122.17 192.09 122.21 192.08 122.24C192.08 122.26 192.12 122.34 192.2 122.49L192.21 122.48ZM193.72 117.45C193.57 117.34 193.49 117.28 193.48 117.28C193.37 117.31 193.31 117.37 193.31 117.45C193.31 117.48 193.33 117.52 193.37 117.57C193.41 117.62 193.44 117.64 193.45 117.64C193.48 117.62 193.52 117.6 193.56 117.56C193.6 117.52 193.65 117.48 193.72 117.45Z" fill="#33FF33"/>
<path d="M195.78 119.82L198.45 119.84C198.48 119.99 198.5 120.13 198.51 120.27C198.52 120.41 198.52 120.55 198.51 120.7C198.54 120.93 198.58 121.14 198.64 121.35C198.7 121.55 198.76 121.76 198.82 121.98C198.9 122.27 198.99 122.54 199.11 122.77C199.32 123.15 199.61 123.43 200 123.61C200.38 123.79 200.78 123.88 201.21 123.89C201.63 123.89 202.03 123.82 202.41 123.67C202.79 123.52 203.07 123.29 203.25 122.98C203.42 122.74 203.55 122.44 203.65 122.1C203.68 121.97 203.7 121.84 203.7 121.72C203.7 121.6 203.77 121.5 203.9 121.44C203.82 121.33 203.75 121.21 203.68 121.11C203.62 121 203.55 120.9 203.49 120.8C203.38 120.6 203.24 120.44 203.08 120.32C202.92 120.2 202.74 120.09 202.54 120.01C202.26 119.89 201.99 119.79 201.72 119.7C201.45 119.61 201.18 119.51 200.9 119.41C200.59 119.29 200.29 119.18 199.98 119.07C199.68 118.96 199.38 118.84 199.09 118.71C198.5 118.44 198.02 118.11 197.63 117.71C197.24 117.31 196.94 116.87 196.73 116.41C196.52 115.94 196.39 115.46 196.34 114.96C196.29 114.46 196.29 113.98 196.34 113.5C196.39 113.08 196.51 112.63 196.69 112.16C197.01 111.36 197.46 110.75 198.04 110.32C198.62 109.89 199.33 109.62 200.16 109.49C201.16 109.35 202.12 109.43 203.05 109.73C204.06 110.03 204.82 110.64 205.34 111.56C205.61 112.05 205.81 112.57 205.93 113.11C206.05 113.65 206.11 114.21 206.13 114.8L203.41 114.78L203.34 114.49C203.29 114.34 203.25 114.19 203.22 114.04C203.19 113.89 203.14 113.73 203.08 113.56C202.84 112.97 202.4 112.6 201.77 112.45C201.44 112.38 201.12 112.36 200.8 112.38C200.48 112.4 200.17 112.49 199.86 112.63C199.61 112.74 199.41 112.89 199.26 113.08C199.1 113.27 199.01 113.51 198.97 113.82C198.93 114.47 199.17 114.93 199.69 115.2C199.97 115.33 200.24 115.46 200.52 115.57C200.8 115.69 201.07 115.79 201.35 115.89C201.72 116.04 202.09 116.18 202.46 116.3C202.83 116.43 203.19 116.56 203.55 116.71C204.49 117.11 205.19 117.67 205.64 118.4C206.09 119.13 206.35 119.99 206.43 120.99C206.46 121.46 206.45 121.94 206.41 122.41C206.37 122.88 206.25 123.35 206.07 123.8C205.44 125.54 204.21 126.53 202.4 126.76C201.96 126.84 201.52 126.87 201.08 126.86C200.64 126.85 200.2 126.79 199.76 126.69C198.21 126.37 197.13 125.46 196.53 123.97C196.34 123.51 196.2 123.05 196.11 122.58C196.02 122.11 195.96 121.65 195.91 121.17C195.88 120.96 195.86 120.74 195.85 120.52C195.84 120.3 195.83 120.07 195.79 119.82H195.78ZM203.27 125.82C203.22 125.89 203.17 125.94 203.13 125.98C203.09 126.02 203.07 126.05 203.07 126.07C203.1 126.14 203.17 126.2 203.29 126.27C203.31 126.27 203.33 126.25 203.38 126.22C203.42 126.19 203.43 126.16 203.42 126.12C203.4 126.07 203.38 126.03 203.36 125.98C203.34 125.94 203.31 125.89 203.28 125.82H203.27ZM204.89 113.3C204.89 113.3 204.81 113.24 204.78 113.23C204.76 113.21 204.73 113.21 204.69 113.21C204.67 113.19 204.65 113.21 204.63 113.23C204.61 113.26 204.59 113.29 204.59 113.3C204.62 113.35 204.66 113.39 204.71 113.42C204.74 113.42 204.8 113.38 204.88 113.3H204.89ZM205.84 123.12C205.84 123.12 205.78 123.21 205.77 123.23C205.75 123.25 205.75 123.28 205.74 123.31C205.79 123.36 205.83 123.38 205.86 123.38C205.88 123.4 205.89 123.39 205.91 123.37C205.93 123.35 205.94 123.33 205.94 123.31C205.94 123.28 205.94 123.25 205.92 123.22C205.9 123.2 205.88 123.16 205.85 123.11L205.84 123.12Z" fill="#33FF33"/>
<path d="M205.97 132.69V133.91L26.1 132.51V131.29L205.97 132.69Z" fill="#33FF33"/>
</g>
<defs>
<clipPath id="clip0_650_2497">
<rect width="209.22" height="133.91" fill="white"/>
</clipPath>
</defs>
</svg>
