<svg width="36" height="36" viewBox="0 0 36 36" fill="none" xmlns="http://www.w3.org/2000/svg">
<rect width="36" height="36" rx="6" fill="#101010"/>
<path d="M12.9641 24.9289V19.3446L11.6874 24.9289H7.29119L5.9684 19.5435L6.00788 24.9289H2V13.0923H8.25861L9.50902 19.6501L10.6673 13.0923H16.8601V24.9289H12.9641Z" fill="white"/>
<path d="M22.7173 13H18.0513V24.936H22.7173V13Z" fill="white"/>
<path d="M35.0633 21.7176C35.0633 22.4139 34.9383 22.9751 34.6882 23.4014C34.4381 23.8277 34.1157 24.1616 33.7142 24.4032C33.3194 24.6377 32.8784 24.8011 32.398 24.8792C31.9176 24.9645 31.4503 25 30.9897 25H23.8821V13.0995H30.4829C31.9439 13.0995 33.0035 13.3624 33.6616 13.8952C34.3197 14.4281 34.6487 15.1954 34.6487 16.1901C34.6487 16.6519 34.5895 17.0355 34.4776 17.341C34.3592 17.6466 34.2012 17.9023 33.9972 18.1084C33.7932 18.3144 33.5563 18.4778 33.2799 18.6057C33.01 18.7336 32.7139 18.8473 32.3914 18.9467C32.7139 18.9894 33.0298 19.0675 33.3457 19.1812C33.6616 19.2949 33.9511 19.4512 34.2012 19.6714C34.4579 19.8846 34.6619 20.1616 34.8264 20.4885C34.9844 20.8153 35.0699 21.2345 35.0699 21.7247L35.0633 21.7176ZM30.3776 16.7798C30.3776 16.6164 30.3579 16.4672 30.325 16.3322C30.2921 16.1972 30.2328 16.0835 30.1473 15.984C30.0617 15.8917 29.9433 15.8135 29.7985 15.7638C29.6471 15.7141 29.4563 15.6927 29.2193 15.6927H28.3441V17.8455H29.2193C29.6537 17.8455 29.9564 17.7602 30.1275 17.5826C30.2986 17.405 30.3776 17.135 30.3776 16.7727V16.7798ZM30.6145 21.2913C30.6145 21.1279 30.5948 20.9787 30.5619 20.8437C30.5224 20.7087 30.4566 20.595 30.3644 20.4956C30.2657 20.4032 30.1407 20.3251 29.9696 20.2753C29.8051 20.2256 29.5879 20.2043 29.3246 20.2043H28.3506V22.357H29.3246C29.8116 22.357 30.1473 22.2718 30.3381 22.0942C30.529 21.9165 30.6211 21.6466 30.6211 21.2842L30.6145 21.2913Z" fill="white"/>
</svg>
