<svg width="84" height="84" viewBox="0 0 84 84" fill="none" xmlns="http://www.w3.org/2000/svg">
<g clip-path="url(#clip0_157_1041)">
<path d="M3.05176e-05 84.01L83.03 84.01L83.03 7.62939e-06L3.05176e-05 7.62939e-06L3.05176e-05 84.01Z" fill="#367AEC"/>
<path d="M69.0526 48.6567C72.619 33.3429 63.0959 18.0375 47.7822 14.4711C32.4685 10.9046 17.1631 20.4277 13.5966 35.7415C10.0302 51.0552 19.5533 66.3606 34.867 69.927C50.1807 73.4935 65.4861 63.9704 69.0526 48.6567Z" fill="url(#paint0_linear_157_1041)"/>
<path d="M25.88 28.47C26.15 28.63 26.42 28.9 26.69 28.78C26.52 28.36 26.33 27.95 26.1 27.57C26.03 27.46 25.96 27.34 25.83 27.29C25.66 27.23 25.48 27.34 25.31 27.39C24.79 27.54 24.37 27.08 24.28 26.61C23.79 26.69 23.34 26.26 23.28 25.77C23.26 25.64 23.28 25.5 23.22 25.37C23.1 25.07 22.71 24.98 22.4 25.06C22.09 25.14 21.82 25.33 21.52 25.43C21.22 25.53 20.83 25.52 20.64 25.27C20.55 25.15 20.51 25 20.39 24.92C20.18 24.78 19.9 25 19.8 25.23C19.61 25.72 19.63 25.94 19.25 26.3C18.96 26.59 18.49 26.63 18.36 27.08C18.19 27.65 18.86 28.21 18.63 28.74C18.44 29.19 17.67 29.07 17.4 29.47C17.01 30.04 17.41 30.36 17.4 30.99C17.39 31.49 16.76 32.16 17.39 32.58C17.59 32.72 17.87 32.72 18.04 32.9C18.23 33.11 18.15 33.46 18.01 33.7C17.87 33.95 17.66 34.18 17.64 34.47C17.6 34.86 17.91 35.21 17.96 35.6C18.18 35.76 18.52 35.58 18.62 35.33C18.72 35.07 18.66 34.78 18.6 34.51C18.54 34.24 18.49 33.94 18.62 33.7C18.8 33.33 19.33 33.11 19.27 32.71C19.23 32.44 18.91 32.22 18.99 31.95C19.02 31.85 19.1 31.78 19.18 31.71C19.86 31.1 20.7 30.58 21.66 30.64C22.71 30.64 23.58 29.95 24.52 29.51C24.65 29.45 24.77 29.39 24.87 29.29C25.12 29.02 25.12 28.49 25.48 28.39C25.63 28.35 25.77 28.4 25.9 28.48L25.88 28.47Z" fill="url(#paint1_linear_157_1041)"/>
<path style="mix-blend-mode:screen" opacity="0.3" d="M23.6399 26.86C23.1399 26.74 22.7299 26.35 22.5499 25.84C22.0399 26.41 21.26 27.06 20.45 26.7C20.08 26.54 19.89 26.23 19.82 25.89C19.73 26.05 19.61 26.22 19.43 26.4C19.26 26.56 19.08 26.67 18.93 26.75C18.74 26.86 18.7 26.89 18.69 26.93C18.67 27 18.76 27.21 18.82 27.34C18.97 27.69 19.17 28.17 18.94 28.69C18.72 29.2 18.24 29.34 17.92 29.44C17.82 29.47 17.6699 29.52 17.6399 29.54C17.5599 29.66 17.5599 29.69 17.6299 29.97C17.6799 30.18 17.75 30.43 17.74 30.76C17.74 31.03 17.6399 31.28 17.5599 31.49C17.5199 31.59 17.46 31.76 17.45 31.84C17.45 31.84 17.4499 31.84 17.4599 31.84C17.4799 31.85 17.55 31.88 17.6 31.89C17.76 31.94 18 32.03 18.2 32.23C18.11 32.04 18.0499 31.8 18.1299 31.52C18.2099 31.25 18.4 31.08 18.5 30.99C19.07 30.47 19.64 30.12 20.2 29.92C20.2 29.91 20.19 29.89 20.18 29.88C20.08 29.6 20.0899 29.29 20.1399 28.99C20.2199 28.49 20.51 28.02 20.92 27.73C21.33 27.44 21.9499 27.34 22.3799 27.64C22.9099 28.01 23.06 28.64 22.94 29.24C23.05 29.18 23.15 29.12 23.26 29.06C23.51 28.92 23.77 28.78 24.03 28.65C24.08 28.62 24.17 28.58 24.19 28.56C24.22 28.53 24.26 28.41 24.29 28.34C24.36 28.15 24.47 27.89 24.69 27.69C24.21 27.61 23.83 27.26 23.62 26.85L23.6399 26.86Z" fill="url(#paint2_linear_157_1041)"/>
<path d="M41.3299 13.73C34.0599 13.73 25.9499 16.65 21.0699 22.23C21.7599 22.47 22.5099 22.61 23.2099 22.3C23.4399 22.2 23.7199 22.07 23.9299 22.21C24.0399 22.29 24.0999 22.42 24.1999 22.51C24.4199 22.72 24.7599 22.69 25.0599 22.65C25.5899 22.58 26.1199 22.5 26.6599 22.42C26.7799 22.4 26.8899 22.39 27.0099 22.41C27.2599 22.46 27.4599 22.71 27.4399 22.97C27.4199 23.22 27.1999 23.45 26.9399 23.46C26.7499 23.47 26.5399 23.38 26.3599 23.46C26.0799 23.59 26.1399 24 26.2799 24.27C26.4199 24.54 26.6099 24.85 26.4799 25.12C26.5599 24.96 26.9399 24.82 27.0999 24.76C27.5299 25.6 28.2399 26.89 29.3799 26.4C29.2299 26.82 29.3599 27.25 29.7099 27.53C30.0599 27.8 30.5099 27.88 30.9499 27.94C30.5399 28.3 30.9099 28.96 31.2599 29.37C31.6199 29.78 31.9199 30.51 31.4499 30.79C32.0099 30.9 32.6099 30.84 33.1399 30.63C33.6999 30.74 33.9099 31.61 33.4599 31.96C33.7099 32.27 33.9999 32.6 34.3899 32.64C34.7799 32.69 35.1999 32.22 34.9699 31.9C35.3799 31.57 35.8999 31.38 36.4199 31.38C36.7899 31.38 37.2299 31.44 37.4699 31.16C37.8499 30.7 37.2399 30.08 36.7199 29.81C37.2499 28.85 38.5899 29.23 39.4199 29.4C39.3899 29.2 39.5399 28.91 39.5199 28.72C40.2499 28.61 40.9999 28.71 41.6199 28.22C42.2799 27.7 42.0499 26.41 42.7099 26.19C43.0599 26.07 43.4499 26.06 43.8099 26.14C44.2699 26.24 44.6799 26.5 45.1399 26.61C45.4099 26.67 45.7099 26.67 45.9699 26.55C46.1699 26.46 46.3599 26.19 46.5899 26.2C46.7099 26.2 46.7999 26.28 46.8899 26.35C47.1699 26.58 47.4499 26.81 47.7299 27.03C47.7699 27.06 47.8099 27.1 47.8299 27.15C47.8499 27.19 47.8399 27.24 47.8299 27.29C47.7599 27.92 47.7399 28.33 48.1999 28.83C48.5499 29.21 48.9899 29.09 49.3499 29.4C49.6799 29.68 50.1999 30.69 50.0799 31.1C49.9599 31.53 49.4299 31.84 49.4999 32.28C49.5799 32.8 50.3299 32.83 50.7199 33.19C51.3099 33.73 51.0199 34.97 51.7699 35.25C51.9299 35.31 52.1099 35.31 52.2299 35.43C52.6199 35.8 51.7499 36.47 52.0399 36.93C52.3399 37.08 52.6599 37.18 52.9999 37.2C52.8499 37.62 52.9299 38.12 53.2199 38.46C53.4099 38.68 53.6999 38.91 53.6199 39.2C53.5299 39.52 53.0799 39.54 52.8299 39.75C52.4699 40.05 52.6099 40.61 52.5999 41.08C52.5799 42.09 51.7499 42.91 50.8799 43.42C50.6399 43.56 50.3899 43.69 50.2399 43.91C50.0899 44.14 50.0999 44.5 50.3399 44.63C50.4599 44.7 50.5999 44.69 50.7399 44.68C51.3999 44.65 52.2299 44.5 52.3899 43.85C52.4499 43.63 52.4099 43.39 52.4699 43.17C52.5899 42.77 53.0099 42.54 53.1899 42.17C53.4999 41.54 53.0499 40.62 53.5799 40.14C53.7399 39.99 53.9699 39.93 54.1699 39.84C55.1999 39.39 55.6799 37.99 55.1399 37C55.1199 36.97 55.5799 35.78 55.5699 35.51C55.5699 34.74 54.9499 33.96 55.1799 33.18C55.2599 32.9 55.4599 32.56 55.2599 32.34C55.1799 32.25 55.0499 32.22 54.9599 32.15C54.7099 31.96 54.7699 31.54 55.0099 31.34C55.2499 31.14 55.5899 31.12 55.8899 31.17C55.7499 31.38 55.8699 31.68 56.0599 31.85C56.2499 32.02 56.4999 32.11 56.7099 32.27C57.1199 32.59 57.2699 33.21 57.0599 33.69C56.9699 33.9 56.8099 34.08 56.7999 34.31C56.7899 34.54 57.0599 34.77 57.2299 34.63C57.2699 34.39 57.5599 34.3 57.7799 34.2C58.1299 34.05 58.4399 33.79 58.6299 33.46C58.7999 33.18 58.8399 32.75 58.5599 32.59C58.4799 32.54 58.3899 32.53 58.3199 32.47C58.0899 32.28 58.3099 31.93 58.4099 31.65C58.8099 30.59 57.3799 29.35 56.5899 28.93C55.9499 28.59 53.8799 27.78 55.0899 26.8C55.3199 26.61 55.6099 26.52 55.8899 26.43C55.6899 26.29 55.4999 26.15 55.2999 26C55.4899 25.86 55.7099 25.76 55.9399 25.69C55.7799 25.69 55.6399 25.61 55.4999 25.53C54.9499 25.2 54.3799 24.6 54.8399 23.93C55.0199 23.66 55.4799 23.57 55.6599 23.84C55.7399 23.96 55.7499 24.12 55.7699 24.27C56.0899 25.94 57.8399 24.87 58.5699 24.33C58.9299 24.06 59.5099 23.94 59.7599 24.31C60.0099 24.68 59.6999 25.2 59.8499 25.62C59.9899 25.99 60.4499 26.13 60.8299 26.04C61.2099 25.95 61.5199 25.68 61.8099 25.42C62.6099 25.7 63.3999 25.98 64.1999 26.26C64.1999 26.02 64.3199 25.83 64.4899 25.66C59.3299 18.43 50.8699 13.72 41.2999 13.72L41.3299 13.73Z" fill="url(#paint3_linear_157_1041)"/>
<path style="mix-blend-mode:screen" opacity="0.3" d="M57.28 18.74C57.22 19.3 56.67 19.84 56.11 19.8C53.69 19.63 51.52 18.29 50.17 16.29C49.89 15.88 49.93 15.48 50.13 15.17C47.32 14.24 44.36 13.74 41.34 13.74C40.8 13.74 40.26 13.76 39.73 13.79C39.97 14.16 40.05 14.63 39.83 15.19C39.25 16.69 36.81 17.79 35.4 18.33C33.63 19.01 31.36 19.69 29.67 18.46C28.91 17.91 28.67 17.29 28.75 16.67C26.17 17.93 23.86 19.54 22.02 21.44C22.05 21.44 22.08 21.44 22.11 21.44C22.35 21.44 22.56 21.4 22.77 21.3C22.96 21.22 23.22 21.1 23.51 21.1C23.72 21.1 23.91 21.16 24.07 21.27C24.23 21.38 24.33 21.51 24.39 21.6C24.4 21.62 24.42 21.64 24.41 21.64C24.41 21.64 24.44 21.65 24.52 21.65C24.6 21.65 24.7 21.64 24.79 21.62L26.41 21.39C26.5 21.38 26.61 21.36 26.73 21.36C26.81 21.36 26.89 21.36 26.97 21.38C28.66 21.71 27.26 23.79 27.78 24.74C28 25.14 29.71 26.24 29.99 25.35C29.92 25.59 29.84 25.83 29.84 26.08C29.84 27.05 31.16 27.24 31.9 27.22C31.81 27.38 31.77 27.61 31.64 27.74C31.57 27.82 31.38 27.84 31.32 27.93C31.17 28.18 31.45 28.52 31.62 28.71C31.89 29.03 32.16 29.5 32.2 29.98C32.42 29.95 32.63 29.9 32.83 29.82L33 29.75L33.18 29.78C33.78 29.9 34.38 30.58 34.18 31.21C34.13 31.38 34.05 31.55 34.08 31.72C34.11 31.89 34.3 32.05 34.45 31.97C34.33 31.75 34.45 31.46 34.64 31.31C34.84 31.16 35.1 31.11 35.34 31.07C35.8 30.99 36.26 30.91 36.72 30.83C36.9 30.62 36.68 30.31 36.45 30.16C36.22 30.01 35.94 29.83 35.97 29.56C35.99 29.43 36.07 29.32 36.17 29.23C36.88 28.51 37.99 28.22 38.96 28.48C38.94 28.32 38.91 28.17 38.89 28.01C39.41 27.94 39.95 27.87 40.43 27.66C40.95 27.44 41.37 27.03 41.62 26.52C41.86 26.02 41.94 25.49 42.55 25.29C42.82 25.2 43.11 25.15 43.4 25.15C43.6 25.15 43.8 25.17 43.99 25.22C44.28 25.29 44.53 25.39 44.77 25.49C44.98 25.58 45.36 25.82 45.59 25.81C45.9 25.79 46.06 25.42 46.37 25.38C46.58 25.35 46.78 25.49 46.94 25.63C47.36 25.98 47.75 26.38 48.1 26.81C48.13 26.77 48.17 26.73 48.2 26.69C48.51 26.38 48.96 26.21 49.4 26.24C50.22 26.29 50.91 26.78 51.39 27.42C51.74 27.89 51.93 28.51 52.04 29.09C52.17 29.75 52.26 30.51 52.02 31.15C51.89 31.52 51.67 31.85 51.32 32.05C51.14 32.15 50.95 32.21 50.76 32.23C50.93 32.31 51.11 32.41 51.27 32.56C51.73 32.98 51.72 33.75 52 34.28C52.34 34.92 53.36 34.84 53.04 35.83C52.97 36.06 52.57 36.52 52.9 36.73C52.98 36.78 53.09 36.77 53.18 36.76C53.34 36.75 53.49 36.73 53.65 36.71C53.69 36.71 53.72 36.71 53.75 36.72C53.78 36.74 53.79 36.78 53.8 36.81C53.9 37.23 53.52 37.59 53.85 37.99C53.88 38.03 53.91 38.06 53.95 38.1C54.12 38.29 54.41 38.61 54.42 39.03C54.61 38.86 54.76 38.63 54.85 38.37C54.99 37.96 54.97 37.54 54.79 37.21C54.66 36.96 54.71 36.81 54.87 36.33C54.95 36.09 55.14 35.53 55.16 35.4C55.16 35.17 55.07 34.89 54.97 34.6C54.84 34.22 54.7 33.81 54.71 33.41C54.71 33.13 54.94 32.79 54.83 32.52C54.69 32.17 54.36 32.05 54.32 31.63C54.28 31.24 54.49 30.82 54.77 30.57C55.12 30.26 55.6 30.09 56.06 30.18C56.25 30.22 56.6 30.32 56.71 30.5C56.89 30.79 56.65 30.79 56.56 31.1C56.49 31.34 56.67 31.58 56.88 31.71C57.09 31.84 57.34 31.91 57.52 32.08C57.75 32.29 57.85 32.62 57.82 32.94C57.79 33.25 57.65 33.55 57.49 33.81C57.78 33.81 58.08 33.65 58.23 33.4C58.38 33.15 58.39 32.81 58.25 32.55C58.16 32.39 58.03 32.26 57.95 32.1C57.78 31.74 58 31.57 58.08 31.25C58.14 31.01 58.06 30.78 57.94 30.56C57.64 30 57.07 29.52 56.52 29.23C56.46 29.2 56.37 29.16 56.26 29.11C55.58 28.79 53.57 27.75 54.64 26.81C54.81 26.66 55.02 26.55 55.23 26.44C54.92 26.37 54.65 26.17 54.48 25.9C54.65 25.76 54.87 25.67 55.1 25.67C54.61 25.69 54.33 24.99 54.28 24.62C54.23 24.18 54.22 23.67 54.51 23.23C54.73 22.9 55.11 22.7 55.51 22.7C55.86 22.7 56.17 22.86 56.36 23.14C56.5 23.35 56.53 23.58 56.55 23.72C56.55 23.75 56.55 23.78 56.56 23.8C56.64 24.21 56.77 24.21 56.88 24.21C57.09 24.21 57.38 24.11 57.72 23.93C57.61 23.66 57.53 23.37 57.49 23.08C57.42 22.47 57.68 21.9 58.28 21.69C58.95 21.45 59.72 21.69 60.25 22.12C60.79 22.55 61.15 23.21 61.36 23.86C61.45 24.14 61.51 24.45 61.54 24.76C61.59 24.72 61.63 24.68 61.68 24.64L61.95 24.4L63.82 25.06C61.97 22.6 59.75 20.48 57.28 18.77V18.74ZM33.98 23.04C33.72 23.78 32.89 24.51 32.24 24.23C31.42 23.88 31.56 22.97 31.97 22.34C32.4 21.69 33.64 21.42 34 22.26C34.1 22.48 34.08 22.76 33.98 23.03V23.04ZM41.92 20.55C41.07 20.86 40.01 21.14 39.04 21.06C38.8 21.09 38.56 21.05 38.36 20.93C38.18 20.88 38.01 20.81 37.85 20.72C36.37 19.89 38.06 18.23 38.83 17.69C40.09 16.81 41.65 16.33 43.19 16.4C43.59 16.42 44.01 16.48 44.33 16.73C46.14 18.14 43 20.16 41.91 20.56L41.92 20.55ZM51.76 22.19C51.35 22.51 50.33 21.67 50.34 20.93C50.37 19.18 52.92 21.29 51.76 22.19Z" fill="url(#paint4_linear_157_1041)"/>
<path d="M24.9899 65.52C29.6199 68.77 35.2499 70.68 41.3399 70.68C53.8199 70.68 64.4099 62.66 68.2599 51.49C66.8499 52.2 66.2099 53.85 64.7599 54.34C64.5399 54.41 64.2899 54.46 64.0799 54.36C63.8699 54.27 63.7199 53.99 63.8299 53.79C63.3899 53.66 62.8799 54.02 62.8399 54.48C62.8199 54.72 62.9199 54.98 62.8199 55.2C62.6499 55.56 62.1499 55.53 61.7499 55.51C61.6699 55.51 61.5899 55.51 61.5299 55.56C61.4799 55.6 61.4499 55.67 61.4299 55.74C61.1999 56.5 61.0699 57.94 60.1599 58.24C59.8899 58.33 59.5899 58.28 59.3299 58.39C58.9599 58.56 58.8199 58.99 58.5699 59.31C58.3199 59.62 57.7199 59.76 57.5799 59.38C57.6999 59.16 57.8299 58.94 57.9499 58.72C57.6599 58.66 57.3599 58.6 57.1399 58.4C56.9499 58.23 56.8499 58 56.7799 57.76C56.4599 56.81 56.4199 55.77 56.6699 54.8C55.9999 54.83 55.4099 55.42 55.3799 56.09C55.3399 57.11 55.6099 57.42 54.7799 58.01C54.1499 58.46 53.3999 58.2 53.8299 59.24C54.0999 59.9 53.3299 61.3 52.5899 61.42C52.2799 61.47 51.9299 61.21 51.6599 61.38C51.5299 61.46 51.4699 61.62 51.3999 61.76C51.1299 62.36 50.6099 62.85 49.9999 63.09C49.6299 63.24 49.1199 63.42 49.1499 63.82C49.1799 64.2 49.6599 64.32 50.0299 64.41C50.3999 64.49 50.8399 64.84 50.6399 65.16C50.5799 65.26 50.4599 65.32 50.3499 65.38C49.6699 65.72 48.9899 66.06 48.2999 66.39C48.4399 65.87 47.8099 65.33 47.3199 65.55C47.2899 65.73 47.2499 65.91 47.2199 66.09C46.0199 66.56 44.5399 65.32 44.7999 64.06C44.1399 64.59 43.0799 64.19 42.6299 63.47C42.1899 62.75 42.1899 61.85 42.1999 61C41.4999 60.98 40.9399 61.82 41.2199 62.46C40.6799 62.6 40.1999 62.93 39.8599 63.37C40.2299 63.54 40.3999 64.04 40.2199 64.4C39.6699 64.5 39.0799 64.34 38.6599 63.97C38.6999 64.24 38.3799 64.44 38.1099 64.41C37.8399 64.38 37.6099 64.22 37.3499 64.12C36.5599 63.8 35.8199 63.89 35.3999 62.99C35.2399 63.24 35.0299 63.46 34.7699 63.6C34.0799 63.98 33.3399 63.55 32.9199 62.97C32.6299 62.56 32.4199 62.08 32.0399 61.75C31.8299 61.56 31.5499 61.38 31.5299 61.09C31.5199 60.83 31.7499 60.6 31.7399 60.33C31.7299 59.85 30.9499 59.78 30.6599 60.16C30.3699 60.54 30.4399 61.07 30.5299 61.54C29.8399 61.67 29.4799 62.65 29.9299 63.19C29.5899 63.55 28.8599 63.32 28.7799 62.83C28.4199 62.74 28.0099 62.87 27.7699 63.15C28.2299 63.37 28.5699 63.81 28.6499 64.31C27.9799 64.33 27.2999 64.21 26.6799 63.96C25.7699 63.59 24.8899 62.73 25.0899 61.77C24.3299 62 23.4899 61.54 23.0499 60.88C22.6099 60.22 22.4799 59.4 22.4299 58.61C21.8799 58.64 21.4799 59.34 21.7399 59.83C21.8599 60.06 22.0899 60.23 22.2199 60.46C22.4399 60.86 22.3299 61.35 22.2999 61.81C22.2299 63.05 24.2699 65.24 25.5499 65.24C25.2199 65.24 25.0599 65.35 24.9999 65.51L24.9899 65.52Z" fill="url(#paint5_linear_157_1041)"/>
<path style="mix-blend-mode:screen" opacity="0.3" d="M65.24 55.19C65.02 55.26 64.82 55.3 64.63 55.3C64.44 55.3 64.26 55.26 64.1 55.19C63.96 55.13 63.83 55.03 63.72 54.91C63.72 54.93 63.72 54.94 63.72 54.96C63.74 55.17 63.77 55.45 63.63 55.75C63.31 56.43 62.54 56.43 62.29 56.43C62.26 56.43 62.23 56.43 62.2 56.43C62.18 56.51 62.16 56.6 62.14 56.7C61.93 57.6 61.65 58.82 60.58 59.18C60.39 59.24 60.2 59.26 60.06 59.27C59.96 59.27 59.85 59.29 59.81 59.31C59.73 59.35 59.62 59.52 59.53 59.67C59.45 59.79 59.37 59.93 59.26 60.07C59 60.4 58.57 60.61 58.15 60.61C57.7 60.61 57.34 60.36 57.2 59.96L57.11 59.7L57.25 59.44C57.14 59.38 57.03 59.31 56.93 59.22C56.63 58.95 56.48 58.59 56.39 58.3C56.3 58.02 56.23 57.74 56.18 57.45C56.15 57.96 55.97 58.38 55.31 58.86C55.27 58.89 55.22 58.92 55.18 58.94C55.2 59.06 55.21 59.19 55.22 59.31C55.27 59.39 55.31 59.48 55.36 59.57C55.73 60.1 55.99 60.7 56.14 61.32C56.47 62.75 56.23 64.75 54.73 65.43C54.21 65.67 53.56 65.82 53 65.61C52.84 65.55 52.71 65.46 52.6 65.36C52.21 65.64 51.78 65.82 51.34 65.83C51.23 66.08 51.03 66.29 50.75 66.43C49.88 66.87 49.23 67.51 48.23 67.73C48.13 67.75 47.99 67.76 47.94 67.66C47.93 67.63 47.92 67.6 47.92 67.57C47.92 67.42 47.99 67.28 48.02 67.14C48.05 66.99 48.01 66.81 47.87 66.76C47.75 66.71 47.61 66.79 47.53 66.9C47.08 67.49 47.01 67.53 46.32 67.29C45.7 67.08 45.19 66.86 44.77 66.33C44.54 66.04 44.37 65.72 44.29 65.39C44.24 65.39 44.19 65.39 44.13 65.39C43.22 65.39 42.56 64.9 42.17 64.09C41.9 63.52 41.8 62.89 41.75 62.27C41.66 62.53 41.63 62.81 41.67 63.09C41.33 63.15 40.91 63.3 40.89 63.65C40.89 63.75 40.92 63.85 40.94 63.94C41.06 64.47 40.79 65.07 40.31 65.32C39.9 65.54 39.38 65.49 39 65.23C39.01 65.4 39.01 65.58 39 65.75C38.98 66.34 38.85 66.96 38.42 67.39C37.91 67.9 37.15 67.93 36.5 67.75C35.74 67.54 35.15 66.95 34.73 66.31C34.42 65.85 34.19 65.3 34.09 64.75C34.06 64.75 34.02 64.75 33.99 64.75C33.52 64.75 33.15 64.49 32.89 64.1C32.69 63.8 32.55 63.47 32.33 63.19C32.13 62.95 31.88 62.76 31.66 62.54C31.44 62.32 31.26 62.03 31.27 61.72C31.27 61.44 31.43 61.11 31.24 60.9C30.97 61.04 30.9 61.4 30.95 61.7C30.98 61.87 31.02 62.05 30.93 62.19C30.82 62.37 30.57 62.38 30.39 62.49C30.17 62.63 30.09 62.93 30.14 63.19C30.19 63.45 30.33 63.68 30.48 63.9C30.18 64.23 29.82 64.41 29.37 64.41C29.26 64.41 29.16 64.4 29.06 64.38C29.09 64.47 29.11 64.56 29.13 64.65L29.25 65.36L28.54 65.38C28.48 65.38 28.42 65.38 28.36 65.38C27.43 65.38 26.54 65.17 25.8 64.61C25.45 64.35 25.16 64.1 24.95 63.7C24.9 63.61 24.55 62.56 24.7 62.55C23.97 62.61 23.22 62.13 22.98 61.43C22.95 61.36 22.9 61.26 22.83 61.28C22.8 61.28 22.78 61.31 22.76 61.33C22.48 61.67 22.63 62.17 22.79 62.58C23.01 63.13 23.24 63.55 23.65 63.99C24.24 64.63 24.95 65.07 25.36 65.07V65.6C27.06 66.78 28.86 67.76 30.75 68.53C30.54 67.5 31.41 66.73 32.37 66.64C33.1 66.57 33.82 66.95 34.39 67.38C35.42 68.16 36.31 69.19 37.02 70.28C38.44 70.5 39.89 70.62 41.36 70.62C47.66 70.62 53.59 68.5 58.38 64.83C58.42 64.53 58.5 64.23 58.58 63.95C58.78 63.3 59.07 62.66 59.42 62.07C59.73 61.55 60.1 61.04 60.57 60.66C61.03 60.29 61.64 59.99 62.24 60.21C62.47 60.29 62.67 60.43 62.83 60.59C64.53 58.58 65.97 56.31 67.07 53.84C66.57 54.38 66.01 54.88 65.25 55.14L65.24 55.19Z" fill="url(#paint6_linear_157_1041)"/>
<path d="M17.47 38.75C16.37 39.1 15.64 37.42 14.69 37.92C14.05 38.25 14.4 38.48 14.46 39.04C14.55 39.9 14.53 40.42 14.46 41.29C14.43 41.69 14.64 42.16 15.04 42.19C14.49 42.48 14.68 43.32 14.97 43.87C15.26 44.42 15.55 45.2 15.06 45.59C15.35 45.75 15.53 46.07 15.53 46.4C15 46.22 14.7 47.11 15.03 47.56C15.36 48.01 15.95 48.2 16.34 48.6C16.89 49.17 16.93 50.16 16.43 50.77C16.44 51.19 16.96 51.49 17.34 51.3C17.46 51.24 17.56 51.13 17.69 51.09C18.12 50.94 18.45 51.47 18.63 51.89C18.81 52.31 19.29 52.77 19.64 52.48C19.29 52.78 19.69 54.01 19.92 54.29C20.35 54.8 21.05 54.88 21.69 54.96C21.5 55.36 21.8 55.82 22.14 56.11C23.25 57.03 22.85 57.33 23.15 58.55C23.44 59.73 24.16 59.09 24.83 59.95C25.13 60.33 25.28 60.81 25.57 61.2C25.71 61.39 25.9 61.56 26.13 61.56C26.36 61.56 26.58 61.28 26.45 61.09C25.98 60.34 25.6 59.52 25.33 58.67C25.25 58.42 25.18 58.15 25.28 57.91C25.53 57.26 26.59 57.41 26.98 56.84C27.31 56.36 26.96 55.74 26.74 55.2C26.52 54.66 26.63 53.81 27.21 53.81C27.37 53.01 27.52 52.12 27.09 51.42C26.99 51.26 26.87 51.11 26.83 50.93C26.71 50.3 27.63 50.06 28.27 50.11C28.19 49.77 28.12 49.41 28.21 49.07C28.3 48.73 28.61 48.42 28.96 48.46C29.15 48.48 29.31 48.6 29.49 48.62C29.8 48.67 30.12 48.43 30.16 48.12C30.2 47.81 29.96 47.49 29.65 47.45C29.93 47 30.5 46.86 30.98 46.64C31.46 46.42 31.94 45.92 31.75 45.43C31.66 45.21 31.45 45.04 31.4 44.81C31.27 44.15 32.43 43.97 32.6 43.32C32.66 43.07 32.57 42.8 32.65 42.56C32.81 42.09 33.46 42.08 33.96 42.06C34.46 42.04 35.1 41.65 34.87 41.21C34.75 40.98 34.18 40.7 34.43 40.41C34.53 40.29 34.72 40.26 34.87 40.29C34.97 40.31 35.06 40.35 35.16 40.33C36.21 40.09 34.82 38.7 34.51 38.49C33.82 38.02 33.02 37.75 32.25 37.44C30.97 36.92 30.73 35.07 29.39 34.75C28.83 34.62 28.22 34.8 27.67 34.64C27.14 34.49 26.93 34.07 26.48 33.86C26.09 33.67 24.56 33.78 24.42 33.52C24.37 33.43 24.37 33.31 24.35 33.21C24.26 32.88 23.86 32.73 23.52 32.79C23.19 32.85 22.9 33.06 22.64 33.27C22.77 33.6 22.91 33.98 22.75 34.3C22.55 34.74 21.98 34.81 21.52 34.98C21.07 35.15 20.66 35.76 21.03 36.06C20.75 36.03 20.45 36 20.18 36.11C19.92 36.22 19.71 36.53 19.81 36.79C19.86 36.93 19.99 37.04 20.04 37.18C20.19 37.62 19.54 37.89 19.07 37.85C18.6 37.8 17.99 37.75 17.81 38.19C17.76 38.32 17.76 38.47 17.69 38.59C17.64 38.68 17.55 38.73 17.45 38.76L17.47 38.75Z" fill="url(#paint7_linear_157_1041)"/>
<path style="mix-blend-mode:screen" opacity="0.3" d="M34.53 38.97C33.93 38.36 33.02 38.04 32.24 37.74C32.12 37.69 32.01 37.65 31.92 37.61C31.13 37.29 30.68 36.61 30.28 36.02C29.94 35.51 29.63 35.07 29.2 34.92C29.2 34.95 29.2 34.97 29.2 35C29.17 35.85 28.92 36.75 28.19 37.26C27.92 37.44 27.58 37.33 27.36 37.15C26.7 36.63 26.54 35.66 26.54 34.87C26.54 34.69 26.55 34.51 26.57 34.33C26.51 34.28 26.46 34.24 26.41 34.19C26.28 34.08 26.17 33.98 26.06 33.93C25.95 33.89 25.54 33.86 25.3 33.85C25.02 33.83 24.73 33.82 24.45 33.82C24.29 33.82 24.11 33.78 24.04 33.64C24.01 33.58 24 33.51 23.98 33.44C23.91 33.26 23.68 33.18 23.49 33.21C23.3 33.24 23.13 33.35 22.97 33.46C23.46 34.32 22.46 34.79 21.81 34.99C21.29 35.15 21.18 35.76 21.28 36.26C20.98 36.22 20.6 36.21 20.43 36.46C20.37 36.55 20.35 36.64 20.34 36.74C20.67 37.01 20.89 37.41 20.97 37.83C21.18 38.88 20.86 39.89 20.66 40.91C20.47 41.91 20.26 43.07 19.6 43.88C19.27 44.29 18.75 44.51 18.23 44.32C17.57 44.08 17.17 43.37 16.92 42.76C16.47 41.62 16.49 40.24 16.76 39.02C16.45 39 16.13 38.89 15.86 38.72C15.61 38.55 15.44 38.33 15.11 38.32C14.99 38.32 14.85 38.34 14.76 38.43C14.49 38.67 14.72 39.15 14.74 39.45C14.76 39.81 14.69 40.18 14.71 40.55C14.74 41.16 14.87 41.89 15.53 42.12C15.02 42.5 14.88 42.73 15.18 43.32C15.55 44.02 15.73 44.62 15.43 45.41C15.85 45.78 16.11 46.33 16.13 46.89C15.96 46.83 15.76 46.77 15.62 46.89C15.46 47.01 15.49 47.27 15.62 47.41C15.85 47.68 16.26 47.79 16.51 48.07C16.86 48.46 17.06 48.98 17.08 49.5C17.09 49.83 16.61 50.7 17.03 50.85C17.21 50.92 17.39 50.77 17.57 50.69C18.64 50.23 18.42 51.62 18.92 52.01C19.03 52.09 19.16 52.12 19.3 52.14C19.55 52.14 19.81 52.2 20.06 52.22C19.27 53.95 21.21 54.63 22.56 54.25C22.37 54.3 22.17 54.84 22.12 55.01C22.02 55.3 21.99 55.39 22.28 55.63C22.68 55.97 23.06 56.35 23.24 56.86C23.41 57.34 23.32 57.89 23.41 58.39C23.43 58.52 23.46 58.66 23.55 58.77C23.66 58.91 23.84 58.96 24.01 59.02C24.21 59.09 24.4 59.19 24.57 59.31C24.98 59.59 25.3 60 25.48 60.46C25.55 60.64 25.63 60.87 25.82 60.91C25.86 60.46 25.65 60.03 25.4 59.65C25.07 59.14 24.58 58.56 24.57 57.91C24.57 57.75 24.61 57.63 24.69 57.52C24.23 56.9 23.83 56.25 23.53 55.53C23 54.24 22.81 52.51 23.95 51.47C24.42 51.04 25.02 50.82 25.66 50.93C25.81 50.96 25.96 51 26.09 51.07C26.08 51.03 26.06 50.99 26.05 50.94C25.98 50.59 26.07 50.25 26.29 49.99C26.58 49.64 27.03 49.48 27.4 49.41C27.39 49.2 27.4 48.98 27.46 48.76C27.6 48.21 28.04 47.79 28.53 47.69L28.99 46.94C29.08 46.79 29.19 46.67 29.31 46.56C29.23 45.64 29.36 44.58 29.82 43.77C30.03 43.4 30.37 43.06 30.8 42.96C31.12 42.89 31.43 42.96 31.71 43.09C31.81 43.01 31.89 42.94 31.91 42.89C31.91 42.86 31.91 42.77 31.91 42.71C31.88 42.13 32.09 41.81 32.68 41.69C32.98 41.63 33.28 41.63 33.57 41.53C33.72 41.48 33.87 41.39 33.93 41.24C34.09 40.85 33.32 40.01 34.05 39.85C34.26 39.8 34.67 39.9 34.84 39.74C35.11 39.49 34.72 39.18 34.52 38.97H34.53ZM23.44 47.52C23.35 48.1 23.1 48.76 22.54 49.04C21.89 49.36 21.17 49.03 20.88 48.39C20.8 48.22 20.74 48.04 20.7 47.85C20.34 47.06 20.29 46.11 20.47 45.27C20.56 44.83 20.75 44.35 21.1 44.05C21.61 43.61 22.27 43.69 22.74 44.15C23.13 44.53 23.34 45.02 23.43 45.55C23.53 46.21 23.54 46.85 23.44 47.51V47.52ZM25.32 43.35C25.22 43.61 25.09 43.86 24.94 44.09C24.86 44.21 24.76 44.29 24.62 44.34C24.55 44.36 24.48 44.36 24.41 44.35C24.34 44.35 24.26 44.35 24.19 44.34C24.12 44.32 24.06 44.29 24.01 44.24C23.95 44.2 23.91 44.15 23.87 44.09C23.84 44.05 23.81 44.01 23.78 43.96C23.66 43.78 23.57 43.57 23.51 43.36C23.47 43.19 23.44 43 23.46 42.83C23.47 42.73 23.48 42.63 23.52 42.53C23.55 42.44 23.59 42.35 23.64 42.27C23.74 42.11 23.86 41.99 24.02 41.89C24.17 41.79 24.34 41.75 24.51 41.73C24.59 41.73 24.68 41.73 24.76 41.75C24.84 41.76 24.92 41.8 24.99 41.84C25.01 41.84 25.02 41.86 25.03 41.87C25.08 41.91 25.14 41.94 25.18 41.99C25.24 42.05 25.29 42.12 25.33 42.19C25.37 42.27 25.41 42.36 25.42 42.45C25.44 42.55 25.45 42.66 25.44 42.76C25.43 42.96 25.38 43.16 25.31 43.35H25.32Z" fill="url(#paint8_linear_157_1041)"/>
<path d="M39.32 34.19C39.29 34.25 39.26 34.31 39.24 34.37C39.21 34.48 39.2 34.61 39.15 34.71C39.06 34.91 38.82 34.97 38.72 35.15C38.46 35.6 38.47 36.66 37.64 36.54C37.56 36.53 37.47 36.5 37.4 36.55C37.35 36.59 37.33 36.66 37.32 36.72C37.27 36.98 37.16 37.29 36.9 37.33C36.73 37.36 36.57 37.26 36.42 37.19C36.26 37.13 36.05 37.12 35.96 37.26C35.92 37.32 35.92 37.41 35.88 37.47C35.81 37.58 35.64 37.59 35.51 37.57C34.98 37.51 34.47 37.3 34.04 36.98C33.93 36.9 33.81 36.8 33.67 36.79C33.57 36.79 33.47 36.81 33.38 36.79C33.17 36.71 33.22 36.41 33.17 36.2C33.06 35.76 32.49 35.63 32.24 35.3C32 34.99 31.84 34.49 31.74 34.11C31.67 33.85 31.59 33.53 31.33 33.44C31.55 33.34 31.78 33.27 32.02 33.22C32.08 33.21 32.15 33.19 32.21 33.22C32.27 33.25 32.31 33.32 32.34 33.39C32.76 34.19 33.97 34.42 34.74 34.07C35.1 33.9 35.45 33.68 35.85 33.67C36.18 33.66 36.51 33.79 36.84 33.78C37.17 33.78 37.55 33.52 37.49 33.19C37.49 33.14 37.46 33.08 37.48 33.03C37.49 32.99 37.53 32.97 37.56 32.94C38.08 32.6 38.95 33.18 39.33 32.7C39.5 32.48 39.42 32.1 39.17 31.98C39.34 31.87 39.52 31.75 39.72 31.72C39.92 31.69 40.16 31.75 40.26 31.93C40.42 32.22 40.18 32.6 40.3 32.9C40.36 33.05 40.51 33.17 40.5 33.33C40.5 33.54 40.23 33.63 40.03 33.7C39.75 33.79 39.48 33.96 39.33 34.21L39.32 34.19Z" fill="url(#paint9_linear_157_1041)"/>
<path style="mix-blend-mode:screen" opacity="0.3" d="M35.37 36.84C34.99 36.77 34.63 36.61 34.32 36.38L34.29 36.36C34.16 36.26 33.97 36.11 33.7 36.07C33.7 36.02 33.68 35.96 33.67 35.91C33.54 35.41 33.16 35.16 32.88 34.97C32.78 34.9 32.66 34.82 32.61 34.76C32.54 34.67 32.45 34.51 32.34 34.21C32.76 34.49 33.28 34.66 33.84 34.66C34.22 34.66 34.58 34.58 34.89 34.44C34.97 34.4 35.04 34.37 35.12 34.33C35.36 34.21 35.59 34.09 35.78 34.09C35.9 34.09 36.02 34.11 36.15 34.14C36.32 34.17 36.51 34.21 36.72 34.21H36.77C37.16 34.2 37.55 34.01 37.79 33.72C37.91 33.58 37.98 33.42 38.01 33.25C38.09 33.25 38.18 33.27 38.27 33.28C38.43 33.3 38.59 33.32 38.76 33.32C38.9 33.32 39.02 33.31 39.14 33.27C38.98 33.4 38.85 33.55 38.75 33.71C38.69 33.82 38.64 33.93 38.61 34.05C38.59 34.11 38.58 34.17 38.57 34.23C38.57 34.24 38.57 34.26 38.57 34.27C38.55 34.28 38.54 34.29 38.52 34.31C38.42 34.39 38.26 34.51 38.15 34.7C38.04 34.89 37.98 35.11 37.91 35.31C37.86 35.47 37.77 35.76 37.7 35.82C37.7 35.82 37.68 35.82 37.66 35.81C37.57 35.79 37.5 35.79 37.43 35.79C37.21 35.79 37.05 35.87 36.96 35.94C36.71 36.13 36.66 36.4 36.64 36.5C36.64 36.52 36.64 36.54 36.63 36.55C36.61 36.54 36.58 36.53 36.56 36.52C36.41 36.46 36.26 36.43 36.11 36.43C35.78 36.43 35.5 36.58 35.34 36.85L35.37 36.84ZM39.71 32.93C39.71 32.93 39.71 32.93 39.71 32.94C39.71 32.94 39.69 32.94 39.68 32.95L39.7 32.93H39.71Z" fill="url(#paint10_linear_157_1041)"/>
<path d="M53.95 43.2C53.97 43.51 54.01 43.81 53.77 43.96C53.6 44.07 53.37 44.03 53.22 44.15C52.91 44.39 53.19 44.93 52.96 45.25C52.76 45.53 52.34 45.46 52.01 45.38C51.68 45.3 51.23 45.3 51.11 45.62C50.93 46.1 51.63 46.41 51.84 46.73C52.11 47.14 52.36 47.76 52.22 48.25C52.19 48.35 52.15 48.45 52.15 48.56C52.15 48.75 52.3 48.92 52.48 48.95C52.58 48.97 52.69 48.94 52.8 48.95C53.14 48.97 53.38 49.4 53.21 49.7C53.16 49.8 53.07 49.88 53.04 49.98C53.01 50.07 53.02 50.17 53.04 50.27C53.18 50.88 53.59 50.96 53.96 51.34C54.33 51.71 54.42 52.27 54.44 52.77C54.46 53.26 54.07 53.84 54.19 54.29C54.29 54.68 54.67 54.58 54.88 54.35C55.08 54.13 55.2 53.85 55.2 53.55C55.2 53.41 55.19 53.27 55.22 53.14C55.25 53.03 55.31 52.93 55.37 52.83C55.62 52.44 55.92 52.06 56.04 51.6C56.16 51.13 56.01 50.62 56.19 50.15C56.32 49.8 56.55 49.72 56.81 49.47C57.73 48.62 57.27 47.77 57.51 46.7C57.61 46.24 58.12 45.9 58.21 45.52C58.26 45.28 57.89 45.1 57.95 44.86C57.97 44.8 58.01 44.75 58.04 44.7C58.25 44.41 58.29 44.01 58.14 43.68C57.65 43.66 57.08 42.28 57.26 41.87C57.31 41.75 57.44 41.67 57.54 41.58C57.91 41.23 57.87 40.55 57.47 40.24C57.3 40.11 57.08 40.04 56.96 39.87C56.83 39.69 56.92 39.31 56.91 39.1C56.91 38.97 56.88 38.8 56.76 38.75C56.7 38.72 56.62 38.73 56.56 38.75C55.57 39.03 56.06 40.33 55.24 40.81C55.05 40.92 54.8 40.99 54.75 41.2C54.71 41.37 54.84 41.53 54.84 41.7C54.84 42.11 54.24 42.22 54.04 42.59C53.94 42.77 53.95 42.98 53.97 43.2H53.95Z" fill="url(#paint11_linear_157_1041)"/>
<path style="mix-blend-mode:screen" opacity="0.3" d="M57.7299 45.47C57.6699 45.3 57.4699 45.18 57.4599 44.99C57.4599 44.83 57.5899 44.76 57.6199 44.61C57.7299 44.19 57.4799 43.91 57.2799 43.57C57.0299 43.16 56.6199 42.22 56.8899 41.61C57.0499 41.25 57.5999 41.07 57.2799 40.69C56.9999 40.36 56.3399 40.31 56.5399 39.7C56.3799 39.66 56.2299 39.79 56.1699 39.95C56.1099 40.1 56.1299 40.27 56.1299 40.43C56.1299 40.59 56.0899 40.77 55.9699 40.87C55.8199 41 55.5799 41 55.4799 41.16C55.4299 41.25 55.4399 41.35 55.4399 41.45C55.4599 41.98 55.3399 42.58 54.8999 42.88C54.5399 43.13 54.4999 43.14 54.5299 43.52C54.5599 43.84 54.6399 44.06 54.3799 44.34C54.0299 44.71 53.4299 44.69 53.3699 45.31C53.3499 45.53 53.3699 45.76 53.3099 45.97C53.2999 46.01 53.2799 46.06 53.2399 46.09C53.2099 46.11 53.1699 46.12 53.1299 46.12C52.8799 46.14 52.6099 46.06 52.3999 46.19C52.3699 46.21 52.3299 46.24 52.3199 46.28C52.3099 46.33 52.3199 46.37 52.3499 46.42C52.6699 47.11 52.9599 47.53 52.8199 48.31C52.8099 48.37 52.7999 48.44 52.8399 48.49C52.8699 48.52 52.9099 48.54 52.9599 48.55C53.3599 48.66 53.6799 48.66 53.8899 49.08C54.0799 49.43 54.0899 49.84 53.9099 50.17C53.8799 50.23 53.8399 50.28 53.8099 50.33C53.8599 50.52 53.9299 50.58 54.1599 50.76C54.5699 51.07 54.8499 51.47 54.8999 52C54.9399 52.36 54.8799 52.72 54.8299 53.07C54.8099 53.22 54.8299 53.33 54.9999 53.36C55.2399 52.68 55.5099 52 55.7499 51.31C55.7699 51.24 55.7999 51.16 55.7699 51.1C55.7399 51.04 55.6699 51.01 55.6099 50.98C54.6299 50.48 54.8299 48.74 55.0799 47.89C55.2299 47.38 55.5199 46.88 56.0199 46.63C56.3899 46.45 56.7999 46.44 57.1699 46.56C57.3399 46.19 57.8899 45.89 57.7499 45.49L57.7299 45.47ZM55.8699 45.37C55.7399 45.52 55.4799 45.5 55.3499 45.37C54.6899 44.69 55.5999 42.27 56.0799 42.85C56.6799 43.57 56.4199 44.7 55.8699 45.37Z" fill="url(#paint12_linear_157_1041)"/>
<path style="mix-blend-mode:multiply" opacity="0.25" d="M41.32 13.73C25.59 13.73 12.85 26.48 12.85 42.2C12.85 57.92 25.6 70.67 41.32 70.67C57.04 70.67 69.79 57.92 69.79 42.2C69.79 26.48 57.04 13.73 41.32 13.73ZM43.8 53.45C41.35 54.74 38.58 56.07 35.86 56.65C33.2 57.22 30.45 57.84 27.69 57.68C25.5 57.55 22.88 56.9 20.93 55.87C18.26 54.46 16.24 51.97 15.11 49.19C12.81 43.53 13.38 35.75 16.35 30.41C17.17 28.94 17.92 27.44 18.84 26.03C21.08 22.63 24.45 19.68 28.19 17.63C29.79 16.75 31.49 16.1 33.27 15.68C38.81 14.37 44.87 13.97 50 16.43C53.51 18.11 56.38 21.09 57.92 24.66C60.25 30.06 59.45 36.51 56.59 41.65C53.73 46.79 49.01 50.72 43.8 53.45Z" fill="url(#paint13_linear_157_1041)"/>
<path style="mix-blend-mode:multiply" opacity="0.41" d="M65.4299 27.05C65.9899 28.59 66.4199 30.17 66.6399 31.82C67.1499 35.66 66.7299 39.97 65.4499 43.64C63.4399 49.42 59.7099 54.96 54.9999 58.88C52.3499 61.09 49.1199 63.04 45.7199 63.84C43.2499 64.43 40.7199 64.55 38.1999 64.49C31.9999 64.33 25.1899 63.48 20.2499 59.38C18.3799 57.83 16.6899 55.93 15.3099 53.82C19.7599 63.75 29.7299 70.67 41.3099 70.67C57.0399 70.67 69.7799 57.92 69.7799 42.2C69.7799 36.63 68.1799 31.44 65.4199 27.05H65.4299Z" fill="url(#paint14_linear_157_1041)"/>
<path style="mix-blend-mode:screen" opacity="0.3" d="M44.79 16.1C45.01 16.05 45.22 15.99 45.44 15.94C44.27 15.12 42.74 15.05 41.31 15.12C35.72 15.38 30.04 16.86 25.44 20.11C23.05 21.8 20.99 24.03 19.66 26.65C18.86 28.22 17.21 32.5 19.42 33.69C19.93 33.96 20.55 33.94 21.12 33.85C24.4 33.36 27.19 31.16 29.35 28.64C31.65 25.97 33.53 22.95 36 20.42C38.52 17.84 41.42 16.95 44.8 16.1H44.79Z" fill="url(#paint15_linear_157_1041)"/>
<path style="mix-blend-mode:screen" opacity="0.3" d="M27.46 19.03C21.65 22.03 16.48 27.89 16.46 34.77C16.45 38.95 19.53 42.09 23.75 40.54C27.52 39.15 30.09 35.65 32 32.11C33.91 28.58 35.44 24.77 38.2 21.78C40.66 19.12 44.42 16.8 47.99 16.02C44.74 15.23 41.35 15.17 38.04 15.63C34.36 16.14 30.76 17.33 27.47 19.03H27.46Z" fill="url(#paint16_linear_157_1041)"/>
<path style="mix-blend-mode:multiply" opacity="0.41" d="M65.7199 54.9C64.8899 56.54 63.9099 58.09 62.7899 59.54C60.0899 63.03 56.4799 65.84 52.4299 67.59C48.2099 69.42 43.4899 70.02 38.9599 69.92C37.0799 69.88 34.2299 68.97 33.2999 67.2C32.1399 64.98 33.5399 62.22 35.4999 60.97C36.5799 60.28 37.8099 59.87 39.0399 59.52C42.0399 58.68 45.1399 58.19 48.1399 57.36C52.6999 56.1 57.0799 54.01 60.7099 50.98C64.3299 47.97 67.9999 43.6 68.6399 38.79C68.8699 40.93 68.9899 43.06 68.6999 45.19C68.4699 46.87 68.0999 48.56 67.6099 50.18C67.1099 51.8 66.4799 53.38 65.7099 54.9H65.7199Z" fill="url(#paint17_linear_157_1041)"/>
<path style="mix-blend-mode:multiply" opacity="0.41" d="M67.39 39.8C68.06 38.3 68.48 35.98 67.8 34.43C67.69 34.18 67.52 33.91 67.25 33.87C66.97 33.83 66.73 34.04 66.54 34.25C65.58 35.32 63.41 40.23 65.77 40.94C66.12 41.05 66.5 40.92 66.78 40.69C67.06 40.46 67.24 40.14 67.39 39.81V39.8Z" fill="url(#paint18_linear_157_1041)"/>
<path style="mix-blend-mode:multiply" opacity="0.41" d="M28.1399 65.55C30.5699 65.38 30.4799 62.71 28.8199 61.55C27.6499 60.73 26.0599 60.3 24.6299 60.5C21.2499 60.97 24.7599 64.42 26.1199 65.08C26.7499 65.39 27.4499 65.6 28.1499 65.55H28.1399Z" fill="url(#paint19_linear_157_1041)"/>
<path style="mix-blend-mode:multiply" opacity="0.25" d="M52.4 58.63C52.16 59.48 51.5 60.35 50.81 60.89C50.6 61.05 48.37 62.18 48.23 61.74C48.36 62.16 48.37 62.62 48.28 63.05C48.19 63.47 47.79 63.77 47.35 63.64C46.96 63.53 46.73 63.1 46.71 62.69C46.7 62.28 46.86 61.89 47.03 61.52C46.37 61.97 45.64 62.33 44.88 62.57C44.59 62.66 44.26 62.74 43.99 62.59C43.81 62.5 43.69 62.33 43.59 62.16C43.06 61.28 42.91 60.18 43.16 59.18C43.2 59.03 43.24 58.87 43.19 58.73C43.08 58.46 42.68 58.46 42.4 58.55C41.42 58.86 40.58 59.61 40.16 60.56C40.08 60.75 40 60.96 39.82 61.07C39.58 61.22 39.27 61.13 39 61.18C38.5 61.28 38.22 61.96 38.5 62.38C37.1 62.36 35.25 61.66 34.3 60.61C33.48 59.7 31.84 55.37 29.95 57.46C29.92 55.34 30.66 53.22 32 51.58C31.67 52.61 32.73 53.71 33.81 53.71C34.89 53.71 35.84 52.92 36.41 51.99C36.71 51.49 36.99 50.9 37.53 50.69C37.89 50.56 38.28 50.62 38.66 50.65C40.65 50.81 42.68 49.9 43.96 48.37C45.24 46.84 45.77 44.73 45.47 42.75C45.35 41.96 45.12 41.08 45.56 40.41C45.98 39.77 46.83 39.61 47.51 39.26C48.67 38.65 49.39 37.29 49.24 35.99C50.56 36.73 49.48 38.86 50.78 39.36C50.96 39.43 51.19 39.46 51.26 39.63C51.32 39.79 51.2 39.96 51.08 40.09C49.93 41.35 48.79 42.68 48.2 44.28C48.1 44.55 48.01 44.85 48.06 45.14C48.11 45.43 48.34 45.71 48.63 45.72C48.86 45.73 49.2 45.64 49.25 45.87C49.28 46 49.17 46.12 49.09 46.23C48.64 46.84 49.25 47.63 49.64 48.28C50.5 49.69 50.5 51.74 51.92 52.59C52.14 52.72 52.39 52.82 52.52 53.04C52.61 53.2 52.63 53.39 52.63 53.57C52.68 54.72 52.63 55.87 52.58 57.02C52.56 57.56 52.53 58.09 52.39 58.61L52.4 58.63Z" fill="url(#paint20_linear_157_1041)"/>
<path style="mix-blend-mode:multiply" opacity="0.25" d="M59.9 29.74C60.16 30.18 60.4 30.63 60.55 31.11C60.79 31.88 60.8 32.77 60.4 33.47C60.2 33.81 59.91 34.12 59.9 34.51C59.9 34.7 59.96 34.89 59.99 35.09C60.1 35.9 59.32 36.72 58.51 36.64C58.08 38.28 59.92 38.48 59.91 39.82C59.91 40.33 59.48 40.73 59.36 41.23C59.26 41.65 59.4 42.08 59.5 42.49C60 44.41 59.96 46.47 59.4 48.38C58.87 50.19 57.86 51.9 57.81 53.79C57.79 54.5 57.94 55.26 58.43 55.78C58.92 56.3 59.82 56.45 60.34 55.97C60.02 55.52 60.03 54.86 60.37 54.42C60.71 53.98 61.34 53.8 61.86 54C62.23 53.08 62.59 52.17 62.96 51.25C63.87 51.17 64.93 51.99 65.59 51.36C65.76 51.2 65.85 50.98 65.94 50.77C66.46 49.5 66.98 48.22 67.31 46.89C67.65 45.51 67.79 44.09 67.91 42.67C68.12 40.05 68.26 37.34 67.55 34.78C66.94 32.6 66.21 30.05 64.87 28.2C64.83 28.14 64.78 28.08 64.71 28.05C64.63 28.02 64.54 28.05 64.46 28.06C63.97 28.19 63.48 28.33 62.99 28.46C62.83 28.5 62.67 28.55 62.51 28.5C62.03 28.37 61.97 27.58 61.48 27.48C60.63 27.3 60.18 28.22 59.16 27.62C58.79 27.4 58.53 26.97 58.6 26.55C58.17 26.66 57.81 26.98 57.67 27.4C57.65 27.47 57.63 27.54 57.65 27.61C57.7 27.79 57.94 27.81 58.12 27.84C58.71 27.94 59.1 28.49 59.43 28.98C59.6 29.23 59.76 29.49 59.92 29.75L59.9 29.74Z" fill="url(#paint21_linear_157_1041)"/>
<path style="mix-blend-mode:multiply" opacity="0.41" d="M29.39 66.81C29.39 66.81 42.23 74.23 57.63 64.59C72.63 55.2 68.08 33.21 68.08 33.21C68.08 33.21 70.42 54.11 55.11 63C41.91 70.67 29.38 66.81 29.38 66.81H29.39Z" fill="url(#paint22_linear_157_1041)"/>
<path style="mix-blend-mode:screen" opacity="0.8" d="M14.3099 36.01C14.3099 36.01 16.4999 25.55 25.7199 19.16C34.9399 12.77 46.0599 15.1 46.0599 15.1C46.0599 15.1 23.4499 13.17 14.3099 36.01Z" fill="url(#paint23_linear_157_1041)"/>
<path style="mix-blend-mode:screen" opacity="0.3" d="M70.2599 33.21C70.2599 46.7 57.1799 57.64 41.0399 57.64C24.8999 57.64 11.8199 46.7 11.8199 33.21C11.8199 19.72 24.8999 8.78 41.0399 8.78C57.1799 8.78 70.2599 19.72 70.2599 33.21Z" fill="url(#paint24_radial_157_1041)"/>
<path style="mix-blend-mode:screen" opacity="0.3" d="M41.33 74.87C57.4677 74.87 70.55 63.9323 70.55 50.44C70.55 36.9477 57.4677 26.01 41.33 26.01C25.1922 26.01 12.11 36.9477 12.11 50.44C12.11 63.9323 25.1922 74.87 41.33 74.87Z" fill="url(#paint25_radial_157_1041)"/>
<path style="mix-blend-mode:screen" opacity="0.3" d="M42.65 11.54C55.39 15.99 61.39 31.95 56.06 47.19C50.73 62.42 36.09 71.16 23.35 66.71C10.61 62.26 4.61001 46.3 9.94001 31.06C15.27 15.82 29.91 7.08 42.65 11.54Z" fill="url(#paint26_radial_157_1041)"/>
<path style="mix-blend-mode:screen" opacity="0.3" d="M59 16.95C71.74 21.4 77.74 37.36 72.41 52.6C67.08 67.83 52.44 76.57 39.7 72.12C26.96 67.67 20.96 51.71 26.29 36.47C31.62 21.24 46.26 12.5 58.99 16.95H59Z" fill="url(#paint27_radial_157_1041)"/>
<path d="M43.38 10.05C25.72 8.91999 10.49 22.32 9.35998 39.97C8.22998 57.63 21.63 72.86 39.28 73.99C56.94 75.12 72.17 61.72 73.3 44.07C74.43 26.41 61.03 11.18 43.38 10.05ZM39.33 73.38C22.01 72.27 8.86998 57.33 9.97998 40.01C11.09 22.69 26.03 9.54999 43.35 10.66C60.67 11.77 73.81 26.71 72.7 44.03C71.59 61.35 56.65 74.49 39.33 73.38Z" fill="url(#paint28_radial_157_1041)"/>
<path style="mix-blend-mode:screen" opacity="0.3" d="M40.8199 12.29C40.2599 12.23 39.6899 12.2 39.1199 12.2C31.0299 12.13 23.9299 15.87 18.6899 21.85C17.5899 23.11 13.1899 29.72 17.3999 29.69C20.2899 29.67 23.0799 28.74 25.8199 27.81C30.3899 26.27 34.9599 24.72 39.5199 23.18C41.1999 22.61 42.9299 22.02 44.2699 20.85C47.0199 18.45 46.8699 14.46 43.4299 12.94C42.6099 12.58 41.7199 12.38 40.8199 12.29Z" fill="url(#paint29_linear_157_1041)"/>
<path style="mix-blend-mode:screen" opacity="0.3" d="M64.6499 61.51C64.0999 62.51 63.3599 63.39 62.5799 64.23C60.3799 66.58 57.6799 68.23 54.6799 69.44C53.0499 70.1 47.6499 71 49.1999 67.72C51.4199 63.06 57.0399 59.49 61.6299 57.47C62.6199 57.04 64.5099 56.81 65.2399 57.89C65.8699 58.82 65.1899 60.47 64.7199 61.37C64.6999 61.42 64.6699 61.46 64.6399 61.51H64.6499Z" fill="url(#paint30_linear_157_1041)"/>
<path d="M39.29 73.99C56.95 75.12 72.18 61.72 73.31 44.07C74.44 26.41 61.04 11.18 43.39 10.05C25.73 8.91999 10.5 22.32 9.36999 39.97C8.23999 57.63 21.64 72.86 39.29 73.99ZM43.34 10.66C60.66 11.77 73.8 26.71 72.69 44.03C71.58 61.35 56.64 74.49 39.32 73.38C22 72.27 8.85999 57.33 9.96999 40.01C11.08 22.69 26.02 9.54999 43.34 10.66Z" fill="url(#paint31_radial_157_1041)"/>
</g>
<defs>
<linearGradient id="paint0_linear_157_1041" x1="41.3204" y1="17.3035" x2="41.3204" y2="68.2835" gradientUnits="userSpaceOnUse">
<stop stop-color="#B9224F"/>
<stop offset="1" stop-color="#FF9A4F"/>
</linearGradient>
<linearGradient id="paint1_linear_157_1041" x1="20.72" y1="40.2" x2="22.3" y2="26.37" gradientUnits="userSpaceOnUse">
<stop stop-color="#B9224F"/>
<stop offset="1" stop-color="#FF9A4F"/>
</linearGradient>
<linearGradient id="paint2_linear_157_1041" x1="20.38" y1="35.33" x2="21.44" y2="26.09" gradientUnits="userSpaceOnUse">
<stop stop-color="#B9224F"/>
<stop offset="1" stop-color="#FF9A4F"/>
</linearGradient>
<linearGradient id="paint3_linear_157_1041" x1="43.8099" y1="52.76" x2="42.5899" y2="18.2" gradientUnits="userSpaceOnUse">
<stop stop-color="#B9224F"/>
<stop offset="1" stop-color="#FF9A4F"/>
</linearGradient>
<linearGradient id="paint4_linear_157_1041" x1="43.93" y1="52.03" x2="42.74" y2="18.11" gradientUnits="userSpaceOnUse">
<stop stop-color="#B9224F"/>
<stop offset="1" stop-color="#FF9A4F"/>
</linearGradient>
<linearGradient id="paint5_linear_157_1041" x1="45.1099" y1="65.74" x2="44.8199" y2="46.63" gradientUnits="userSpaceOnUse">
<stop stop-color="#B9224F"/>
<stop offset="1" stop-color="#FF9A4F"/>
</linearGradient>
<linearGradient id="paint6_linear_157_1041" x1="44.95" y1="66.36" x2="44.7" y2="49.68" gradientUnits="userSpaceOnUse">
<stop stop-color="#B9224F"/>
<stop offset="1" stop-color="#FF9A4F"/>
</linearGradient>
<linearGradient id="paint7_linear_157_1041" x1="25.54" y1="59.93" x2="24.61" y2="28.37" gradientUnits="userSpaceOnUse">
<stop stop-color="#B9224F"/>
<stop offset="1" stop-color="#FF9A4F"/>
</linearGradient>
<linearGradient id="paint8_linear_157_1041" x1="25.39" y1="59.34" x2="24.49" y2="28.98" gradientUnits="userSpaceOnUse">
<stop stop-color="#B9224F"/>
<stop offset="1" stop-color="#FF9A4F"/>
</linearGradient>
<linearGradient id="paint9_linear_157_1041" x1="35.56" y1="40.14" x2="36.28" y2="25.76" gradientUnits="userSpaceOnUse">
<stop stop-color="#B9224F"/>
<stop offset="1" stop-color="#FF9A4F"/>
</linearGradient>
<linearGradient id="paint10_linear_157_1041" x1="35.78" y1="38.59" x2="36.27" y2="28.87" gradientUnits="userSpaceOnUse">
<stop stop-color="#B9224F"/>
<stop offset="1" stop-color="#FF9A4F"/>
</linearGradient>
<linearGradient id="paint11_linear_157_1041" x1="55" y1="53.05" x2="54.23" y2="34.97" gradientUnits="userSpaceOnUse">
<stop stop-color="#B9224F"/>
<stop offset="1" stop-color="#FF9A4F"/>
</linearGradient>
<linearGradient id="paint12_linear_157_1041" x1="55.2899" y1="52.05" x2="54.6299" y2="36.43" gradientUnits="userSpaceOnUse">
<stop stop-color="#B9224F"/>
<stop offset="1" stop-color="#FF9A4F"/>
</linearGradient>
<linearGradient id="paint13_linear_157_1041" x1="41.32" y1="-3.51812e-06" x2="41.32" y2="-3.51812e-06" gradientUnits="userSpaceOnUse">
<stop stop-color="#B9224F"/>
<stop offset="1" stop-color="#FF9A4F"/>
</linearGradient>
<linearGradient id="paint14_linear_157_1041" x1="42.5499" y1="17.31" x2="42.5499" y2="68.29" gradientUnits="userSpaceOnUse">
<stop stop-color="#B9224F"/>
<stop offset="1" stop-color="#FF9A4F"/>
</linearGradient>
<linearGradient id="paint15_linear_157_1041" x1="18.31" y1="24.5" x2="45.44" y2="24.5" gradientUnits="userSpaceOnUse">
<stop stop-color="#B9224F"/>
<stop offset="1" stop-color="#FF9A4F"/>
</linearGradient>
<linearGradient id="paint16_linear_157_1041" x1="16.46" y1="28.14" x2="47.99" y2="28.14" gradientUnits="userSpaceOnUse">
<stop stop-color="#B9224F"/>
<stop offset="1" stop-color="#FF9A4F"/>
</linearGradient>
<linearGradient id="paint17_linear_157_1041" x1="59.8299" y1="61.07" x2="44.5199" y2="47.33" gradientUnits="userSpaceOnUse">
<stop stop-color="#B9224F"/>
<stop offset="1" stop-color="#FF9A4F"/>
</linearGradient>
<linearGradient id="paint18_linear_157_1041" x1="68.89" y1="41.21" x2="65.46" y2="35.92" gradientUnits="userSpaceOnUse">
<stop stop-color="#B9224F"/>
<stop offset="1" stop-color="#FF9A4F"/>
</linearGradient>
<linearGradient id="paint19_linear_157_1041" x1="23.1999" y1="63" x2="30.0199" y2="63" gradientUnits="userSpaceOnUse">
<stop stop-color="#B9224F"/>
<stop offset="1" stop-color="#FF9A4F"/>
</linearGradient>
<linearGradient id="paint20_linear_157_1041" x1="47.37" y1="59.51" x2="39.4" y2="46.24" gradientUnits="userSpaceOnUse">
<stop stop-color="#B9224F"/>
<stop offset="1" stop-color="#FF9A4F"/>
</linearGradient>
<linearGradient id="paint21_linear_157_1041" x1="65.67" y1="49.18" x2="56.13" y2="32.08" gradientUnits="userSpaceOnUse">
<stop stop-color="#B9224F"/>
<stop offset="1" stop-color="#FF9A4F"/>
</linearGradient>
<linearGradient id="paint22_linear_157_1041" x1="55.69" y1="62.49" x2="47.69" y2="48.13" gradientUnits="userSpaceOnUse">
<stop stop-color="#8B2236"/>
<stop offset="1" stop-color="#FF9A4F"/>
</linearGradient>
<linearGradient id="paint23_linear_157_1041" x1="30.2899" y1="25.75" x2="26.9799" y2="19.8" gradientUnits="userSpaceOnUse">
<stop stop-color="#B9224F"/>
<stop offset="1" stop-color="#FF9A4F"/>
</linearGradient>
<radialGradient id="paint24_radial_157_1041" cx="0" cy="0" r="1" gradientUnits="userSpaceOnUse" gradientTransform="translate(42.0699 15.85) scale(21.48)">
<stop stop-color="#FFE000"/>
<stop offset="0.5" stop-color="#FFE200"/>
<stop offset="0.74" stop-color="#FFE901"/>
<stop offset="0.92" stop-color="#FFF602"/>
<stop offset="1" stop-color="#FFFF04"/>
</radialGradient>
<radialGradient id="paint25_radial_157_1041" cx="0" cy="0" r="1" gradientUnits="userSpaceOnUse" gradientTransform="translate(41.39 70.42) scale(25.33 25.33)">
<stop stop-color="#FFE000"/>
<stop offset="0.5" stop-color="#FFE200"/>
<stop offset="0.74" stop-color="#FFE901"/>
<stop offset="0.92" stop-color="#FFF602"/>
<stop offset="1" stop-color="#FFFF04"/>
</radialGradient>
<radialGradient id="paint26_radial_157_1041" cx="0" cy="0" r="1" gradientUnits="userSpaceOnUse" gradientTransform="translate(16.9551 32.4545) rotate(-70.72) scale(21.48)">
<stop stop-color="#FFE000"/>
<stop offset="0.5" stop-color="#FFE200"/>
<stop offset="0.74" stop-color="#FFE901"/>
<stop offset="0.92" stop-color="#FFF602"/>
<stop offset="1" stop-color="#FFFF04"/>
</radialGradient>
<radialGradient id="paint27_radial_157_1041" cx="0" cy="0" r="1" gradientUnits="userSpaceOnUse" gradientTransform="translate(68.2368 51.124) rotate(-70.72) scale(25.34)">
<stop stop-color="#FFE000"/>
<stop offset="0.5" stop-color="#FFE200"/>
<stop offset="0.74" stop-color="#FFE901"/>
<stop offset="0.92" stop-color="#FFF602"/>
<stop offset="1" stop-color="#FFFF04"/>
</radialGradient>
<radialGradient id="paint28_radial_157_1041" cx="0" cy="0" r="1" gradientUnits="userSpaceOnUse" gradientTransform="translate(43.9262 19.3627) rotate(3.66) scale(26.81 26.81)">
<stop stop-color="#FFE000"/>
<stop offset="0.57" stop-color="#FFE100"/>
<stop offset="0.78" stop-color="#FFE801"/>
<stop offset="0.92" stop-color="#FFF402"/>
<stop offset="1" stop-color="#FFFF04"/>
</radialGradient>
<linearGradient id="paint29_linear_157_1041" x1="15.6099" y1="20.95" x2="46.1799" y2="20.95" gradientUnits="userSpaceOnUse">
<stop stop-color="#B9224F"/>
<stop offset="1" stop-color="#FF9A4F"/>
</linearGradient>
<linearGradient id="paint30_linear_157_1041" x1="48.9199" y1="63.59" x2="65.4999" y2="63.59" gradientUnits="userSpaceOnUse">
<stop stop-color="#B9224F"/>
<stop offset="1" stop-color="#FF9A4F"/>
</linearGradient>
<radialGradient id="paint31_radial_157_1041" cx="0" cy="0" r="1" gradientUnits="userSpaceOnUse" gradientTransform="translate(38.7026 64.6174) rotate(-176.34) scale(26.81)">
<stop stop-color="#FFE000"/>
<stop offset="0.42" stop-color="#FFE200"/>
<stop offset="0.71" stop-color="#FFEC01"/>
<stop offset="0.96" stop-color="#FFFB03"/>
<stop offset="1" stop-color="#FFFF04"/>
</radialGradient>
<clipPath id="clip0_157_1041">
<rect width="83.03" height="84.01" fill="white"/>
</clipPath>
</defs>
</svg>
